/* XPM */
static char *result[] = {
/* columns rows colors chars-per-pixel */
"86 64 82 1 ",
"  c #4C2611",
". c #4E2913",
"X c #4F2E1A",
"o c #512B14",
"O c #532F1A",
"+ c #52321E",
"@ c #533522",
"# c #5A3720",
"$ c #563926",
"% c #5B3B26",
"& c #563B29",
"* c #5B3D2B",
"= c #5C412D",
"- c #574233",
"; c #5B4433",
": c #5C4936",
"> c #5B4738",
", c #5C4A3B",
"< c #62442E",
"1 c #624632",
"2 c #644935",
"3 c #644C3B",
"4 c #684F3B",
"5 c #67513D",
"6 c #6A513E",
"7 c #5D4E41",
"8 c #5E5245",
"9 c #5F5448",
"0 c #634E40",
"q c #635344",
"w c #6B5544",
"e c #665844",
"r c #6D5946",
"t c #645649",
"y c #685749",
"u c #665A4C",
"i c #6B5C4C",
"p c #705946",
"a c #715D4C",
"s c #655D52",
"d c #6B5E51",
"f c #725F51",
"g c #6D604F",
"h c #72604F",
"j c #676055",
"k c #6C6255",
"l c #676158",
"z c #6C655A",
"x c #6F685C",
"c c #726454",
"v c #786754",
"b c #756856",
"n c #726659",
"m c #786658",
"M c #736A5C",
"N c #796C5D",
"B c #6F6960",
"V c #746E62",
"C c #796F61",
"Z c #767165",
"A c #7A7365",
"S c #777368",
"D c #7A7669",
"F c #7D796D",
"G c #7F7C71",
"H c #807565",
"J c #817769",
"K c #827A6D",
"L c #827E72",
"P c #858275",
"I c #888477",
"U c #878479",
"Y c #89867A",
"T c #8C897C",
"R c #908C7E",
"E c #8E8C81",
"W c #918E82",
"Q c #939185",
"! c #959388",
"~ c #98968C",
"^ c #9A988E",
"/ c None",
/* pixels */
"//////////////////////////////////pwwpwprrprrp6g65////////////////////////////////////",
"/////////////////////////////////1ULLLKIITTIIIIYIKb///////////////////////////////////",
"/////////////////////////////////1RIUYYYIHFFFITIIPG<//////////////////////////////////",
"/////////////////////////////////1WIIIYYIIIIbTIIUIT2//////////////////////////////////",
"/////////////////////////////%%%<1RUYUYYIZCAgIITTIR2oO=+//////////////////////////////",
"//////////////////////////111LKLKrRIYIYYTVR~!TTTTIR2gMFP6%=///////////////////////////",
"////////////////////////prDPKnnvb6TTITYYUDLZbTTIIIR2ggbbFPC6w5////////////////////////",
"///////////////////////aPUUAnwwww4TPTTTTTRRRRTTTTTR256r6cNIIIp////////////////////////",
"////////////////////aavAPKNe5IIIThTPTTTIITTTTTITTTQ2UYUUhrNAIw////////////////////////",
"/////////////////1rAKIYLeebHIPPPTwRITIITTTTTTTTITTR=YUUUUYAmaHvccr=<//////////////////",
"/////////////////AFUUPwwbbALPPPPIKhTITTTTRITTTTTUTVMUPUUUUYLHh3ADNcm*/////////////////",
"//////////////<*AUIIUwPPPPHKIPPPPT<RITRQR^RR!!WTTRgPLLGPYYYYYYToLLLGK%#///////////////",
"//////////////ARTTPc5APPPLPIUIIIHr+YYINjbVMxxxDTRTrYYUPPUUYUPPYY20HLYLmo//////////////",
"/////////////3NAPTchPPPPPPIPUYTUe;@uikjjbgggzxMVZZqTTTUPPPUGDPPUUCaKUAf2//////////////",
"////////////aNCfNNgPPPPPPPPITUGZj3+udkq5:254555xVV3SSGEUUGGGGGLUUUyyCfCH6<////////////",
"///////////HULUYebPPPPPIIITTxlssss.$$&=112:5555:>3;SSSSDGETPGPGLLLLV@EYIYH#///////////",
"//////////mULLLccLPPUUUUUTSx99s,&&::::ebbbgbxbMe3>>wegDZMFLEGLLGLLLGlyLULLH///////////",
"/////////<AKPLwNYPUUUUUUTG999: @eebMbMMMMMMZZZDFSdqqkM=jZVBSUGUGGLGLLf3LULE%//////////",
"/////////CLKGcCYYYYYYUTEV,,-@:ggbxxbZbMxMZZZZZZZVzdlZZDgquVzSEEGLGLKLLm2LLLfo/////////",
"////////*CLJAfDYYYYEEEQF,,--jjkbbMMZMMMMMZZZDZZZnZGGZZZZD3uulSEEULLLYUC0JLLC</////////",
"/////<=*1www32dddEWWQWk7-$:ubxbxMMMVMMZZZZZZZZZxSZZZZVZZZDmussVWEYUUddfpwwww4<<<</////",
"////NAHCCVMMmnnBBfmVMU,,-:gkxbxbZFSSDFFDDFFFFFejGGGFFDZZZSDV0ty!ddddHCHHHCHHHHHHNH////",
"///NUTULLLLLFFGGLVACqk7+:exMxbxMzssgsssjjkkkkkeezkzczxDZVDDSM2uVJSJJLUTLKLLLHLLLIK<///",
"///JYILLLLLLLGGGLLLUWz 9uMVMVxbk9eeeueeegsegjgggudkuguxZVZDDSDouWELLLLLLLLLRKLTLPK<///",
"///JULLLULLLGGUGLGGLLy$qMVxzVVVkesVMZMZZZZZZZZZZZZDFjjMZZZZSDD;,UYLLLULYLITLLILIIK<///",
"///JELULLDDUUGGULLLUV$qqVBxkzVVkexVZZZMZZZZZZAZZAADDNguxZZSSSDFoCELLLLLLILHHKIIIIK2///",
"///JYLLJCLLmULLLUGLYr=qzVMVZZgZx9xZZZZZZZZAAAAAAZDZZMggMZZZSZSDrpELLLYYYIIfLLJKLIK<///",
"///JEUYDnCLyLUUULUYE3;qVVVVVZjg9uMZZZZZZZZDAADDZAAAZVjjMZZZZZZZZ0!LLYYLYTIpKHfJITK<///",
"///KRILHfEE0LLLUUUEE3;qVZVVZZSujgMZZZDZZDZDADDDAAADZVkjMZZSZSSVS4EKLLLRLLLpRWfHTRK2///",
"///KTIYTD00WUEYUUUYW3;qZZZZSZFZgsMDDDDFFZDADZZFAAAZDVkNZSSZZZZSS4WLYEELERT21pTRTRK<///",
"///KWYYYEEELYUYYUUYE3;qZZSZSZDSxgMDZFKKFDZDDFDFDDADZVcVSSZZZSSVS4WLRLELLELEERTRRRH<///",
"///KWYYYYYYEYYYYUUUY3;qZZZSSSSFSjZDADFFFDDDDDFFDDDDDVzVSSSZZZVZV4!LLRLRLETTETRIRRH<///",
"///KEETYTTTYTYYYYUUT5:9ZSSDFDDZVgZDDDDFZFDFFDFFFDFFFZbZDDZZZZZxx3ELLETLEETTETPITTJ<///",
"///KQETYYYYYYYYUYUre=+5SSSFFFDDVgZDDDFFFFDDFFDFFFFFFZxZDDZZZxxx-3ddKYETEETELKHKIRK<///",
"///K^^^~!!!!!L00qdTTT25GGGFFGFDZxZFDDFFFDFFFDFFKFFFFZbZDDZZZVxZXTETd3>y0yL~!!~!~~J1///",
"///yVSVlllzldcQEEEPPGP$DFGGGFDDZjZDFDDDDFFFFFFFFFFFFZxZDDDDDVb-FGGJUEJyyBzdddzlllro///",
"///iVjsududu01JYUPPGLLLgZFFGGDDZxZFFFFFGGGFGGGFFFPFFZMZDDDDDbeFFGFGGLLA0diuuussllyo///",
"///yzjyMchhpw3NUUPPPPPPTgZGFFFDZbxZFDDDFDDFDFDFDAZZFxbZDDDDZekFFLGFKFLN2ifcchnysly ///",
"///ylj3TLLKDCy2LTPUPPPPPPNZFGFFDZMkkxkbkbkbbbbbkbbggxZZFFSMegFPPLLLLFL0=JLLYYE30lto///",
"///&&&*SULGFDC>iPPUUUPUITThgGGFFFFFFFFFFFFFFFFbbbZFFFZFDDeegDPUPULULUy;cLLUUYF*@&$////",
"//////@MELGLGF3,9EUUUUUUUTYU:GFFFFDFDFDFFFFFFFPFMZDFFFDF5PPPPPUPULUE7*=DGLGUTV&///////",
"///////@dLLLGGDd3lLEEYYUYYUUUegbbDFDFFFFDFFDFFFFLDFDkciyDPUUPUUUYYLs-0CDGUYUM@////////",
"///////@8LUGLGFC2zVULUEUYYYUIPC5egjFFFFFFFFFLFFDDDDcwwFYTYYUYYUUULs7OdCSGYYF,+////////",
"////////&DLLLGCy;tBxySEUYYYUIPPPFgebbbbvbZbbbbbbVDN4LUYYYYYYYYTTUV8,;3nNUYYM-/////////",
"////////@tVEfCKFu*4Mxz!YYYYYPPPPLLKeHHHHHHHNANNAn6cKPUYYEYYYYYQBdt>3nCnndLn;@/////////",
"/////////$tdLLYELFfqMNFERTYYIIPIPLvHTTTRTTIPIIPPKCcPUUYYUTYYEQB9t,3nCSFCSfu@//////////",
"/////////X80JELUULLv+iNVD!TYIIIIPPpTIIRIIIIPPPPPLWcPUPUUUYR!V999@qLGLFDLd&u //////////",
"///////////*BVUYLLLPYhrixxFUIYYTIhRTIIIIIIIIIPIPILT3PYEEUPZuu8,5DKFKFKFx7& ///////////",
"///////////odxFUEGLUUU0wwinnkIIURvWIIIIITLIPKIIPILW4UIIPcttt,,3DFLFFLKz7>@////////////",
"////////////&7zSSEUEUEEWpf*ykgghN6QIYITRTKHHIPIILUW4bbeiut:5qNADFJJLsu7-@/////////////",
"/////////////@yBzSEYEEEmLKc3%;iiw6QRTTRIRHTYHYYYUIW35ge=$$NAKCPAFLLV87-@//////////////",
"//////////////&&uBSGEEnDULLVcw%%%<RRRTIRRHNvJYYTYIW4#%%qggTUTPAKUGz98@+///////////////",
"////////////////oxxzz0!LLLLLLFJDFp!RTWRRTaQQvYTTYTW3cVPLFFUTIIRQu999 /////////////////",
"///////////////// $qstSUUUYYUGDDAw^TTWTRRRRTWTTTTYW2dNPPUTTUFF8$u-+ //////////////////",
"///////////////////o>>DllVLYLLLLLr^QWWWRWRRRTRTTRT!2kVUIPKFM,8,@; ////////////////////",
"//////////////////////=&llsssVSBM1LLLJDDDDACDZDKJLK%5rMbg5e88&@///////////////////////",
"////////////////////////&>sssssuq@VVBzzBzzzzkllzzVV.::ee595:@+////////////////////////",
"/////////////////////////@&&$suut@Sxzzzlljlljjjjslx ;:ee-@$+//////////////////////////",
"/////////////////////////////     Vzzlssssssjjsjssx   . //////////////////////////////",
"/////////////////////////////////oVdsqqssssssssusux //////////////////////////////////",
"//////////////////////////////////y;;;;,,,,,,,,,>,8 //////////////////////////////////",
"//////////////////////////////////////////////////////////////////////////////////////",
"//////////////////////////////////////////////////////////////////////////////////////",
"//////////////////////////////////////////////////////////////////////////////////////"
};
