/* XPM */
static char *_a16b868e6ed4212eb363617a482fe6a5hOspnsyq0IPKLrW[] = {
/* columns rows colors chars-per-pixel */
"64 48 171 2 ",
"   c None",
".  c #4F2B17",
"X  c #512F1B",
"o  c #4F301D",
"O  c #52311D",
"+  c #533624",
"@  c #553824",
"#  c #5A3924",
"$  c #563D2B",
"%  c #583C29",
"&  c #57402F",
"*  c #5A412F",
"=  c #574131",
"-  c #5B4434",
";  c #5E4937",
":  c #5A4738",
">  c #5C4A3A",
",  c #604532",
"<  c #634A36",
"1  c #624D3B",
"2  c #694E3A",
"3  c #65503E",
"4  c #6B523E",
"5  c #5E4E41",
"6  c #5F5448",
"7  c #604E40",
"8  c #645344",
"9  c #6A5543",
"0  c #665844",
"q  c #6C5846",
"w  c #645649",
"e  c #695748",
"r  c #655A4D",
"t  c #6B5C4C",
"y  c #715E4D",
"u  c #665E52",
"i  c #6A5E51",
"p  c #6E604C",
"a  c #73604F",
"s  c #676055",
"d  c #6C6254",
"f  c #6D655A",
"g  c #6E685E",
"h  c #736454",
"j  c #786757",
"k  c #776857",
"l  c #736759",
"z  c #736A5C",
"x  c #796C5E",
"c  c #7D705F",
"v  c #756E61",
"b  c #796E61",
"n  c #767165",
"m  c #7A7365",
"M  c #777269",
"N  c #7B7669",
"B  c #7D796C",
"V  c #7F7C71",
"C  c #817566",
"Z  c #817769",
"A  c #837C6F",
"S  c #837D6F",
"D  c #827C6F",
"F  c #817C6F",
"G  c #827A6D",
"H  c #817C70",
"J  c #827C70",
"K  c #827E71",
"L  c #837E71",
"P  c #837D72",
"I  c #807E72",
"U  c #817F73",
"Y  c #837E72",
"T  c #847D70",
"R  c #847E71",
"E  c #847D72",
"W  c #827E72",
"Q  c #887F71",
"!  c #828073",
"~  c #848073",
"^  c #858173",
"/  c #868172",
"(  c #868173",
")  c #858272",
"_  c #858273",
"`  c #878273",
"'  c #838074",
"]  c #838174",
"[  c #838175",
"{  c #838176",
"}  c #858175",
"|  c #848075",
" . c #868074",
".. c #858274",
"X. c #858374",
"o. c #858275",
"O. c #848275",
"+. c #878274",
"@. c #868374",
"#. c #878275",
"$. c #868275",
"%. c #858176",
"&. c #848176",
"*. c #848276",
"=. c #858276",
"-. c #858277",
";. c #878377",
":. c #868376",
">. c #868475",
",. c #878475",
"<. c #878477",
"1. c #858275",
"2. c #888274",
"3. c #898375",
"4. c #898376",
"5. c #888377",
"6. c #8A8475",
"7. c #888476",
"8. c #888477",
"9. c #8A8476",
"0. c #898376",
"q. c #868378",
"w. c #878278",
"e. c #868478",
"r. c #878579",
"t. c #878479",
"y. c #868479",
"u. c #888578",
"i. c #898578",
"p. c #888579",
"a. c #898579",
"s. c #888678",
"d. c #898678",
"f. c #888679",
"g. c #898679",
"h. c #898779",
"j. c #8A8778",
"k. c #8A8679",
"l. c #8A8779",
"z. c #8B8779",
"x. c #88857A",
"c. c #88867A",
"v. c #89867B",
"b. c #89877B",
"n. c #8A877A",
"m. c #8A877B",
"M. c #89867A",
"N. c #8A8879",
"B. c #8B8879",
"V. c #8A887A",
"C. c #8B887A",
"Z. c #8A887B",
"A. c #8B887B",
"S. c #8B897B",
"D. c #8C8979",
"F. c #8C897A",
"G. c #8C897B",
"H. c #8C897C",
"J. c #8D8A7C",
"K. c #8E8A7D",
"L. c #8E8B7E",
"P. c #8F8B7F",
"I. c #8C897D",
"U. c #908C7F",
"Y. c #8F8B80",
"T. c #8E8C80",
"R. c #8F8D81",
"E. c #8E8C81",
"W. c #908D81",
"Q. c #908D82",
"!. c #949287",
/* pixels */
"                                                  h h h h j j j j j h h y q                                                     ",
"                                                  Z *.*.*.t.*.P P *.x.x.^ b                                                     ",
"                                                  A x.x.x.x.*.E N G B.x.x.F <                                                   ",
"                                            9 9 4 G x.x.x.x.F Z A F B.x.x.2.< - 8 9                                             ",
"                                      h h k m m j A x.x.x.B.F *.*.2.B.x.B.7.9 d b x h t 9                                       ",
"                                  h N F N j y y q Z x.x.B.B.x.x.2.x.B.B.B.7.4 t y h x A N h                                     ",
"                              j x m m x h x ^ *.c G x.B.B.x.B.G.L.G.B.B.B.2.y *.*.A k x N k q                                   ",
"                          j A *.N k t l G ^ ^ ,.G m x.B.B.G.G.G.G.G.B.B.B.A k t.t.t.x.F b j y z k t 9                           ",
"                      2 m *.*.m x N A B P ,.*.^ ^ y 2.B.G.L.L.Y.R.Q.R.L.L.x B [ [ t.x.x.*.E x t N N N 9                         ",
"                    h A x.E k k F *.*.*.,.7.x.^ j - m A b l z z v v M *.q.k *.x.*.*.q.t.*.*.t.m t b [ A t                       ",
"                  q k b B x m *.*.*.*.,.7.x.*.N 8 % e i r e 9 e q q d z v r A *.x.t.*.! B V [ q.P h m b k t                     ",
"                x A P N h m *.*.*.*.,.x.*.b f u w % * - ; < < 2 2 3 3 8 8 1 b m B V *.t.P P P [ [ N t k *.P b                   ",
"              y A *.B k m [ q.t.t.t.x.N d 6 5 : - 1 3 3 q h h h h z z r 8 1 e d h v N V *.[ P P P P m h m t.*.x                 ",
"              x A B k N t.t.x.x.x.x.m w > - = 1 d h z z z z z b n m n n z r i b d i d g M *.*.U P P P m t b [ A <               ",
"            9 m N z k *.x.Z.L.Y.L.N 5 - - e d z z z z z z z b n n m m b v n n n n b t r d M x.t.[ P P P k y A N q               ",
"      9 9 2 9 t t 9 t d b *.x.L.m 5 & - r z z z z b v n n n M M N N z z N N M n n n n z i r b b.A B m l h t y a y 4 4 9 9       ",
"    y Z F B N m m b b m b z z l r & - r z z z z z g z z z z v b b b r d n b b n n n n N z 8 i N z z b A A G N Z Z Z Z Z m       ",
"    m q.*.*.[ U P P P P V B P N - ; r z z z z d r r r r r r i i d d r r d d d d z n n N N z - z x.E P *.*.*.*.*.2.2.*.*.G 2     ",
"    C *.[ [ P P P P P P P P [ b = 8 z z f z v d r g z z v b b b n n n n n M n d f v n n N N 8 q x.*.Y Y *.*.*.^ E *.*.*.G 2     ",
"    C t.*.P N A N ! [ [ [ U P e > r v z z z z d i b n n n n n n M M m M m M n f r z n n n N z 2 P *.Y *.2.2.*.m A F E 2.G 4     ",
"    C x.q.N b A l P [ [ *.t.E 1 1 z n v n v d r d b n n n n n M M M M M M M n f d z n n n n n d m *.Y *.x.x.*.k A k G x.A 2     ",
"    C x.q.B b N z *.t.*.*.b.2.1 1 z n n n n f r d n m M M M M M M M M M M M n l f b n n n n n h m t.*.t.x.x.2.t Z m S B.A 2     ",
"    C Z.x.x.A x *.x.x.x.q.x.*.1 1 v n n n N N d f n N B B B N N M N N M M M n z z n n n n n n h C x.x.x.x.x.x.x x 2.L.B.A 2     ",
"    C L.x.x.Z.L.x.x.x.x.x.x.^ 1 3 v n M n M N v f m N B B N N N N B B N N M M z b N n n n n n d C x.x.x.x.x.L.P.R.L.L.L.A 2     ",
"    Z R.L.x.x.x.x.x.B.Z.b.P m , 1 b M N B N N v z M N N N N B B B B B B B B N z b N n n n v z e x H x.Z.Z.L.L.L.x.^ *.Z.A 2     ",
"    Z !.!.Q.Q.R.Q.L.m z b m b 9 1 n B B B B N b z N N N N N B B B B B B B B B z b N N n v v d 1 m m z k b b E Q.L.z.z.Q.S 2     ",
"    i B B n n n v z m A H *.t.P q z B B B B N b z N N N B B B B B B B B B B B z b N N N n z e b [ P A b e q l b v v n v h #     ",
"    e f u i r r q 2 j x.t.*.! ! F x n B B B N b z N B B B B B B A B B B B B N z b N N N b t b H B B P P z 9 r r r r u u e O     ",
"    8 d r b m x k t 9 A t.*.*.*.*.*.m m B B N m z z b b b b b b b z z z z z z z n N N n d h B P P P A P r 9 x m m m 9 r e O     ",
"    = - - b q.P B m 9 i *.t.*.*.*.t.x.m k B B B N m m m m m m m m m z z z m m N N N l t h B *.*.[ [ *.z 1 k P q.b.P - * -       ",
"          e P P P B h 1 l t.t.t.t.t.x.t.B j m N N B B B B B B B B B V N m N N M n l b U [ *.t.q.q.*.z > 8 N [ q.*.l %           ",
"          @ d *.P P B h 8 M t.x.x.x.x.x.,.B k t h b N N B B B B B B B B B N z t k m *.t.q.t.x.x.q.b > 1 b B *.t.b *             ",
"            8 V [ B N h 1 d v z *.b.x.x.,.*.P m k t k z x b b b b x z z m z h N *.b.x.x.x.x.x.x.N w - 2 h N q.[ r +             ",
"            = i N b Z Z t 8 d z E Y.b.x.x.,.*.^ P m k Z G G G Z m m m m h h A q.b.b.b.x.b.L.*.f w > q z z l m d $               ",
"              - r H t.q.P m t q z P x.L.x.,.,.*.*.x S x.G.G.x.7.*.*.*.*.P x E *.x.b.b.L.x.N d 5 > h m N N m q 8                 ",
"                - v P t.*.P A k y t b B *.7.B.x.G G x.7.x.7.7.2.2.*.*.*.*.A z x.Z.x.^ N f 8 > q z A F F N d = @                 ",
"                  r v U *.*.t.x.x y q r f b A E m / x.7.7.7.2.E E *.*.*.*.2.h E G m d 8 8 8 q m A A B m i : %                   ",
"                    e z N t.b.Z.L.A x t 3 3 q d t S G.z.G.G./ A A ^ x.x.7.2.9 p q 1 ; e h z B B A F z w : %                     ",
"                    * > i M U L.E N *.A h 9 1 < < G Q.G.G.L.E C C E G.z.x.x.2 * < 8 9 B ,.P A P B z w = +                       ",
"                        - r f d M q.*.*.[ B m m j Q Q.U.L.L.S 2.7.S G.z.z.z.9 f N P P x.x.*.F b w 5 $                           ",
"                            = 7 f M N U q.*.F F k 2.Q.Q.R.U.U.L.L.L.L.L.L.z.9 z P *.*.^ m f 5 = = o                             ",
"                                < > u f g v n b t m q.P H B B B B N B P P B < q z z d r 8 - @                                   ",
"                                    * 5 8 w u r > i v f f f f f f d d f f f @ ; 0 8 > ; $ O                                     ",
"                                          $ = * @ r g f d d s s d s u u s i X @ % % @                                           ",
"                                                  q d r e r r r u u u u r r .                                                   ",
"                                                  1 - = = - : : : : : - : >                                                     ",
"                                                                                                                                ",
"                                                                                                                                "
};
