/* XPM */
static char *result[] = {
/* columns rows colors chars-per-pixel */
"92 92 132 2 ",
"   c #57341F",
".  c #583420",
"X  c #583621",
"o  c #593622",
"O  c #5A3622",
"+  c #5A3722",
"@  c #5B3722",
"#  c #5A3723",
"$  c #5B3723",
"%  c #593823",
"&  c #5B3823",
"*  c #5B3824",
"=  c #5B3B27",
"-  c #5C3924",
";  c #5C3925",
":  c #5C3A25",
">  c #5C3A26",
",  c #5D3B27",
"<  c #5E3B27",
"1  c #5E3C27",
"2  c #5D3B28",
"3  c #5E3B28",
"4  c #5F3B28",
"5  c #5E3D28",
"6  c #5E3D29",
"7  c #5F3D29",
"8  c #5F3E2A",
"9  c #603D2A",
"0  c #603E2A",
"q  c #603F2A",
"w  c #613F2A",
"e  c #603F2B",
"r  c #613F2B",
"t  c #613F2C",
"y  c #62402C",
"u  c #62402D",
"i  c #63402D",
"p  c #62412D",
"a  c #63412D",
"s  c #62412E",
"d  c #63412E",
"f  c #63422E",
"g  c #63422F",
"h  c #64432F",
"j  c #634330",
"k  c #644330",
"l  c #654330",
"z  c #644331",
"x  c #644431",
"c  c #654431",
"v  c #664431",
"b  c #644532",
"n  c #654533",
"m  c #664532",
"M  c #664533",
"N  c #664633",
"B  c #654634",
"V  c #654635",
"C  c #654735",
"Z  c #664634",
"A  c #664734",
"S  c #664735",
"D  c #5F584A",
"F  c #615A4F",
"G  c #645E52",
"H  c #675F52",
"J  c #676053",
"K  c #656054",
"L  c #666155",
"P  c #686053",
"I  c #686054",
"U  c #696155",
"Y  c #696256",
"T  c #6C6458",
"R  c #6D695F",
"E  c #6E6A60",
"W  c #777368",
"Q  c #78746A",
"!  c #79776C",
"~  c #7B766E",
"^  c #7C7871",
"/  c #878579",
"(  c #8D8B81",
")  c #8E8C81",
"_  c #918D84",
"`  c #928E87",
"'  c #938F88",
"]  c #949189",
"[  c #949289",
"{  c #94928A",
"}  c #95928A",
"|  c #95938B",
" . c #96938B",
".. c #96948C",
"X. c #97948C",
"o. c #97958D",
"O. c #98968D",
"+. c #98968E",
"@. c #99968E",
"#. c #99978E",
"$. c #99978F",
"%. c #9A978E",
"&. c #9A978F",
"*. c #9A988F",
"=. c #9B9990",
"-. c #9A9891",
";. c #9B9891",
":. c #9B9991",
">. c #9C9990",
",. c #9C9991",
"<. c #9D9A91",
"1. c #9D9B91",
"2. c #9C9992",
"3. c #9D9A92",
"4. c #9D9B92",
"5. c #9E9B92",
"6. c #9E9B93",
"7. c #9E9C92",
"8. c #9F9C92",
"9. c #9F9C93",
"0. c #9F9D93",
"q. c #9D9B94",
"w. c #9F9C94",
"e. c #9E9C96",
"r. c #A09D93",
"t. c #A09D94",
"y. c #A09E97",
"u. c #A19F98",
"i. c #A2A098",
"p. c #A2A099",
"a. c #A2A09A",
"s. c None",
/* pixels */
"4 8 e y a f h l c v m m m m m m m m m m m N N N N N N N N N N N N N N N N M M M M N N N Z Z A Z S S S C C C V B n n b x z k j g g g d f g g d d p p p u u y t q 0 7 3 , : - & @ O s.s.s.",
") ) ) ) ) ) ) ) ) ) / / / / / / / / / ) ) ) ) ) ) / / / / / / / / / / / / / / / / / / / / / / / / / / / / / ) ) / / / / / / / / ) ) ) ) / / / / / / / / / / / ) ) ) ) ) ) ) ) ) i.O s.s.",
") ) ) ) ) ) ) ) ) ) / / / / / / / / / ) ) ) ) ) ) / / / / / / / / / / / / / / / / / / / / / / / / / / / / / ) ) / / / / / / / ) ) ) ) ) / / / / / / / / / / / ) ) ) ) ) ) ) ) ) p.R % s.",
") ) ) ) ) / / / / / / / / / / / / / / ) ) ) ) / / / / / / / / / / / / / / / / / / / / / / / / / / / / / / / / / / / / / / / / ) ) / / / / / / / / / / / / / / / / / ) ) ) ) ) ) u.R R + ",
") ) ) / / / / / / / / / / / / / / / / / / / / / / / / / / / / / / / / / / / / / / / / / / / / / / / / / / / / / / / / / / / / / / / / / / / / / / / / / / / / / / / ) ) ) ) ) ) y.E R $ ",
") ) ) / / / / / / / / / / / / / / / / / / / / / / / / / / / / / / / / / / / / / / / / / / / / / / / / / / / / / / / / / / / / / / / / / / / / / / / / / / / / / / / / / ) ) / / e.R G & ",
") ) ) ) / / / / / / / / / / / / / / / / / / / / / / / / / / / / / / / / / / / / / / / / / / / / / / / / / / / / / / / / / / / / / / / / / / / / / / / / / / / / / / / / / / / / q.G G * ",
") ) ) ) / / / / / / / / / / / / / / / / / / / / / / / / / / / / / / / / / / / / / / / / / / / / / / / / / / / / / / / / / / / / / / / / / / / / / / / / / / / / / / / / / / ) ) +.G G = ",
") ) / / / / / / / / / / / / / / / / / / / / / / / / / / / / / / / / / / / / / / / / / / / / / / / / / / / / / / / / / / / / / / / / / / / / / / / / / / / / / / / / / / / / ) ) +.G G 2 ",
") ) / / / / / / / / / / / / / / / / / / / / / / / / / / / / / / / / / / / / / / / / / / / / / / / / / / / / / / / / / / / / / / / / / / / / / / / / / / / / / / / / / / / / / / +.G G 5 ",
"/ / / / / / / / / / / / / / / / / / / / / / / / / / / / / / / / / / / / / / / / / / / / / / / / / / / / / / / / / / / / / / / / / / / / / / / / / / / / / / / / / / / / / / / / +.G G 7 ",
"/ / / / / / / / / / / / / / / / / / / / / / / / / / / / / / / / / / / / / / / / / / / / / / / / / / / / / / / / / / / / / / / / / / / / / / / / / / / / / / / / / / / / / / / / +.G G 9 ",
"/ / / / / / / / / / / / / / / / / / / / / / / / / / / / / / / / / / / / / / / / / / / / / / / / / / / / / / / / / / / / / / / / / / / / / / / / / / / / / / / / / / / / / / / / +.G G 0 ",
"/ / / / / / / / / / / / / / / / / / / / / / / / / / / / / / / / / / / / / / / / / ) ) ) ) / / / / / / / / / / / / / / / / / / / / / / / / / / / / / / / / / / / / / / / / / / / +.G G 0 ",
"/ / / / / / / / / / / / / / / / / / / / / / / / / / / / / / / / / / / / / / / / / ) ) ) ) / / / / / / / / / / / / / / / / / / / / / / / / / / / / / / / / / / / / / / / / / / / +.G G q ",
"/ / / / / / / / / / / / / / / / / / / / / / / / / / / / / / / / / / / / / / / / / ) ) ) ) / / / / / / / / / / / / / / / / / / / / / / / / / / / / / / / / / / / / / / / / / / / +.G G r ",
"/ / / / / / / / / / / / / / / / / / / / / / / / / / / / / / / / / / / / / / / / / / ) ) ) ) ) / / / / / / / / / / / / / / / / / / / / / / / / / / / / / / / / / / / / / / / / / +.G G r ",
"/ / / / / / / / / / / / / / / / / / / / / / / / / / / / / / / / / / / / / / / / / / / / / ) ) / / / / / / / / / / / / / / / / / / / / / / / / / / / / / / / / / / / / / / / / / +.G G r ",
"/ / / / / / / / / / / / / / / / / / / / / / / / / / / / / / / / / / / / / / / / / / / / / / / / / / / / / / / / / / / / / / / / / / / / / / / / / / / / / / / / / / / / / / / / +.K G t ",
"/ / / / / / / / / / / / / / / / / / / / / / / / / / / / / / / / / / / / / / / / / / / / / / / / / / / / / / / / / / / / / / / / / / / / / / / / / / / / / / / / / / / / / / / / +.G G y ",
"/ / / / / / / / / / / / / / / / / / / / / / / / / / / / / / / / / / / / / / / / / / / / / / / / / / / / / / / / / / / / / / / / / / / / / / / / / / / / / / / / / / / / / / / / +.G G i ",
"/ / / / / / / / / / / / / / / / / / / / / / / / / / / / / / / / / / / / / / / / / / / / / / / / / / / / / / / / / / / / / / / / / / / / / / / / / / / / / / / / / / / / / / / / +.G G u ",
"/ / / / / / / / / / / / / / / / / / / / / / / / / / / / / / / / / / / / / / / / / / / / / / / / / / / / / / / / / / / / / / / / / / / / / / / / / / / / / / / / / / / / / / / / +.G G u ",
"/ / / / / / / / / / / / / / / / / / / / / / / / / / / / / / / / / / / ) ) / / / / / / / / / / / / / / / / / / / / / / / / / / / / / / / / / / / / / / / / / / / / / / / / / / / +.G G s ",
"/ / / / / / / / / / / / / / / / / / / / / / / / / / / / / / / / / / / ) ) / / / / / / / / / / / / / / / / / / / / / / / ) ) ) ) ) / / / / ) ) / / / / / / / / / / / / / / / / / +.G G s ",
"/ / / / / / / / / / / / / / / / / / / / / / / / / / / / / / / / / / / / / / / / / / / / / / / / / / / / / / / / / / ) ) ) ) ) ) ) / / / / ) ) / / / / / / / / / / / / / / / / / +.G G d ",
"/ / / / / / / / / / / / / / / / / / / / / / / / / / / / / / / / / / / / / / / / / / / / / / / / / / / / / / / / / / ) ) ) ) ) ) / / / / / / / / / / / / / / / / / / / / / / / / +.G G d ",
"/ / / / / / / / / / / / / / / / / / / / / / / / / 5.8.9.<.#.#./ / / / / / / / / / / / / / / / / / / / / / / / / / 9.9.5.#.#.#.) ) ) ) / / / / / / / / / / / / / / / / / / / / / +.G G d ",
"/ / / / / / / / / / / / / / / / / / / / / / / / 9.~ ~ ~ ~ ~ ~ | / / / / / / / / / / / / / / / / / / / / / / / / 0.^ ~ ~ ^ ~ ~ >.) ) ) / / / / / / / / / / / / / / / / / / / / / +.G G d ",
"/ / / / / / / / / / / / / / / / / / / / / / / / 9.D ~ ~ ~ ~ H | / / / / / / / / / / / / / / / / / / / / / / / / 0.D ~ ~ ~ ~ J 7.) ) / / / / / / / / / / / / / / / / / / / / / / +.G G d ",
"/ / / / / / / / / / / / / / / / / / / / / / / / +.G D ~ ~ U Q | / / / / / / / / / / / / / / / / / / / / / / / / +.G D ~ ~ J Q 4./ / / / / / / / / / / / / / / / / / / / / / / / +.G G d ",
"/ / / / / / / / / / / / / / / / / / / / / / / / +.G G     Q Q | / / / / / / / / / / / / / / / / / / / / / / / / +.G G     Q Q | / / / / / / / / / / / / / / / / / / / / / / / / +.G G d ",
") ) ( / / / / / / / / / / / / / / / / / / / / / +.K G     Q Q | / / / / / / / / / / / / / / / / / / / / / / / / +.G G     Q Q | / / / / / / / / / / / / / / / / / / / / / / / / +.G G d ",
") ( ( / / / / / / / / / / / / / / / / / / / / / / / / / / / / / / / / / / / / / / / / / / / / / / / / / / / / / / / / / / / / / / / / / / / / / / / / / / / / / / / / / / / / / +.G G d ",
") ) / / / / / / / / / / / / / / / / / / / / / / / / / / / / / / / / / / / / / / / / / / / / / / / / / / / / / / / / / / / / / / / / / / / / / / / / / / / / / / / / / / / / / / +.G G d ",
") ) ) ) / / / / / / / / / / / / / / / / / / / / / / / / / / / / / / / / / / / / / / / / / / / / / / / / / / / / / / / / / / / / / / / / / / / / / / / / / / / / / / / / / / / / +.G G d ",
") ) ) ) ) / / / / / / / / / / / / / / / / / / / / / / / / / / / / / / / / / / / / / / / / / / / / / / / / / / / / / / / / / / / / / / / ) ) ) / / / / / / / / / / / / / / / / / +.G G d ",
") ) ) ) ) / / / / / / / / / / / / / / / / / / / / / / / / / / / / / / / / / / / / / / / / / / / / / / / / / / / / / / / / / / / / / / / ) ) ) ) / / / / / / / / / / / / / / / / +.G G f ",
") ) ) ) ) / / / / / / / / / / / / / / / / / / / / / / / / / / / / / / / / / / / / / / / / / / / / / / / / / / / / / / / / / / / / / / / ) ) ) ) / / / / / / / / / / / / / / / / +.G G f ",
") ) ) / / / / / / / / / / / / / / / / / / / / / / / / / / / / / / / / / / / / / / / / / / / / / / / / / / / / / / / / / / / / / / / / / / / / / / / / / / / / / / / / / / / / / +.G G f ",
") ) ) / / / / / / / / / / / / / / / / / / / / / / / / / / / / / / / / / / / / / / / / / / / / / / / / / / / / / / / / / / / / / / / / / / / / ) ) / / / / / / / / / / / / / / / +.L G f ",
") ) ) / / / / / / / / / / / / / / / / / / / / / / / / / / / / / / / / / / / / / / / / / / / / / / / / / / / / / / / / / / / / / / / / / / / / ) ) / / / / / / / / / / / / / / / +.G G f ",
") / / / / / / / / / / / / / / / / / / / / / / / / / / / / / / / / / / / / / / / / / / / / / / / / / / / / / / / / / / / / / / / / / / / / / / / / / / / / / / / / / / / / / / / +.G G d ",
") / / / / / / / / / / / / / / / / / / / / / / / / / / / / / / / / / / / / / / / / / / / / / / / / / / / / / / / / / / / / / / / / / / / / / / / / / / / / / / / / / / / / ) ) / +.G G d ",
") / / / / / / / / / / / / / / / / / / / / / / / / / / / / / / / / / / / / / / / / / / / / / / / / / / / / / / / / / / / / / / / / / / / / / / / / / / / / / / / / / / / / ) ) / +.G G d ",
") ) / / / / / / / / / / / / / / / / / / / / / / / / / / / / / / / / / / / / / / / / / / / / / / / / / / / / / / / / / / / / / / / / / / / / / / / / / / / / / / / / / / / ) ) / +.G G d ",
") ) / / / / / / / / / / / / / / / / / / / / / / / / / / / / / / / / / / / / / / / / / / / / / / / / / / / / / / / / / / / / / / / / / / / / / / / / / / / / / / / / / / / ) ) ) +.G G d ",
"/ / / / / / / / / / / / / / / / / / / / / / / / / / / / / / / / / / / / / / / / / / / / / / / / / / / / / / / / / / / / / / / / / / / / / / / / / / / / / / / / / / / ) ) ) ) ) +.G G d ",
"/ / / / / / / / / / / / / / / / / / / / / / / / / / / / / / / / / / / / / / / / / / / / / / / / / / / / / / / / / / / / / / / / / / / / / / / / / / / / / / / / / / / ) ) ) ) ) +.R G d ",
"/ / / / / / / / / / / / / / / / / / / / / / / / / / / / / / / / / / / / / / / / / / / / / / / / / / / / / / / / / / / / / / / / / / / / / / / / / / / / / / / / / / / / / ) ) ) +.R G d ",
"/ / / / / / / / / / / / / / / / / / / / / / / / / / / / / / / / / / / / / / / / / / / / / / / / / / / / / / / / / / / / / / / / / / / / / / / / / / / / / / / / / / / / / ) ) ) +.R G d ",
"/ / / / / / / / / / / / / / / / / / / / / / / / / / / / / / / / / / / / / / / / / / / / / / / / / / / / / / / / / / / / / / / / / / / / / / / / / / / / / / / / / / / / / ) ) ) +.R R d ",
"/ / / / / / / / / / / / / / / / / / / / / / / / / / / / / / / / / / / / / / / / / / / / / / / / / / / / / / / / / / / / / / / / / / / / / / / / / / / / / / / / / / / / / / / ) +.R R d ",
"/ / / / / / / / / / / / / / / / / / / / / / / / / / / / / / / / / / / / / / / / / / / / / / / / / / / / / / / / / / / / / / / / / / / / / / / / / / / / / / / / / ) ) / / / / ) +.R R d ",
"/ / / / / / / / / / / / / / / / / / / / / / / / / / / / / / / / / / / / / / / / / / / / / / / / / / / / / / / / / / / / / / / / / / / / / / / / / / / / / / / / / ) ) / / / / / +.G G a ",
"/ / / / / / / / / / / / / / / / / / / / / / / / / / / / / / / / / / / / / / / / / / / / / / / / / / / / / / / / / / / / / / / / / / / / / / / / / / / / / / / / / / / / / / / / +.G G i ",
"/ / / / / / / / / / / / / / / / / / / / / / / / / / / / / ) ) ) / / / / / / / / / / / / / / / / / / / / / / / / / / / / / / / / / / / / / / / / / / / / / / / / / / / / / / / / +.G G i ",
"/ / / / / / / / / / / / / / / / / / / / / / / / / / ) ) ) ) ) ) / / / / / / / / / / / / / / / / / / / / / / / / / / / / / / / / / / / / / / / / / / / / / / / / / / / / / / / / +.G G u ",
"/ / / / / / / / / / / / / / / / / / / / / / / / / / ) ) ) ) ) ) / / / / / / / / / / / / / / / / / / / / / / / / / / / / / / / / / / / / / / / / / / / / / / / / / / / / / / / / +.G G u ",
"/ / / / / / / / / / / / / / / / / / / / / / / / / X.X.X.t.t.r./ / / / / / / / / / / / / / / / / / / / / / / / / / X.X.X.X.X.X./ / / / / / / / / / / / / / / / / / / / / / / ) ) +.G G u ",
"/ / / / / / / / / / / / / / / / / / / / / / / / =.^ ~ ~ ~ ~ ~ #./ / / / / / / / / / / / / / / / / / / / / / / / 7.~ ~ ~ ~ ~ ^ | / / / / / / / / / / / / / / / / / / / / / ) ) ) +.L G u ",
"/ / / / / / / / / / / / / / / / / / / / / / / / 9.D ~ ~ ~ ~ T 1./ / / / / / / / / / / / / / / / / / / / / / / / 9.D ~ ~ ~ ~ Y | / / / / / / / / / / / / / / / / / / / / / ) ) ) +.L G y ",
"/ / / / / / / / / / / / / / / / / / / / / / / / 9.G D ~ ~ P Q | / / / / / / / / / / / / / / / / / / / / / / / / 9.G D ~ ~ I Q | / / / / / / / / / / / / / / / / / / / / / / / / +.L G y ",
") / / / / / / / / / / / / / / / / / / / / / / / 4.G G     W Q | / / / / / / / / / / / / / / / / / / / / / / / / +.G G     Q Q | / / / / / / / / / / / / / / / / / / / / / / / / +.L G y ",
") ) / / / / / / / / / / / / / / / / / / / / / / +.K G     Q Q | / / / / / / / / / / / / / / / / / / / / / / / / +.K G     Q Q | / / / / / / / / / / / / / / / / / / / / / / / / +.G G y ",
") ) / / / / / / / / / / / / / / / / / / / / / / / / / / / / / / / / / / / / / / / / / / / / / / / / / / / / / / / / / / / / / / / / / / / / / / / / / / / / / / / / / / / / / / +.G G y ",
") ) / / / / / / / / / / / / / / / / / / / / / / / / / / / / / / / / / / / / / / / / / / / / / / / / / / / / / / / / / / / / / / / / / / / / / / / / / / / / / / / / / / / / / / +.G G y ",
") ) / / / / / / / / / / / / / / / / / / / / / / / / / / / / / / / / / / / / / / / / / / / / / / / / / / / / / / / / / / / / / / / / / / / / / / / / / / / / / / / / / / / / ) ) +.G G t ",
"/ / / / / / / / / / / / / / / / / / / / / / / / / / / / / / / / / / / / / / / / / / / / / / / / / / / / / / / / / / / / / / / / / / / / / / / / / / / / / / / / / / / / / / ) ) +.G G t ",
"/ / / / / / / / / / / / / / / / / / / / / / / / / / / / / / / / / / / / / / / / / / / / / / / / / / / / / / / / / / / / / / / / / / / / / / / / / / / / / / / / / / / / / / ) ) +.G G t ",
"/ / / / / / / / / / / / / / / / / / / / / / / / / / / / / / / / / / / / / / / / / / / / / / / / / / / / / / / / / / / / / / / / / / / / / / / / / / / / / / / / / / / / / / ) ) +.G G r ",
"/ / / / / / / / / / / / / / / / / / / / / / / / / / / / / / / / / / / ) ) / / / / / / / / / / / / / / / / / / / / / / / / / / / / / / / / / / / / / / / / / / / / / / / / / / / +.G G r ",
"/ / / / / / / / / / / / / / / / / / / / / / / / / / / / / / / / / / / ) ) ) ) / / / / / / / / / / / / / / / / / / / / / / / / / / / / / / / / / / / / / / / / / / / / / / / / / +.G G r ",
"/ / / / / / / / / / / / / / / / / / / / / / / / / / / / / / / / / / / ) ) ) ) / / / / / / / / / / / / / / / / / / / / / / / / / / / / / / / / / / / / / / / / / / / / / / / / / +.G G r ",
"/ / / / / / / / / / / / / / / / / / / / / / / / / / / / / / / / / / / / / ) ) / / ( ( / / / / / / / / / / / / / / / / / / / / / / / / / / / / / / / / / / / / / / / / / / / / / +.G G w ",
"/ / / / / / / / / / / / / / / / / / / / / / / / / / / / / / / / / / / / / / / / / ( ( / / / / / / / / / / / / / / / / / / / / / / / / / / / / / / / / / / / / / / / / / / / / / +.G G w ",
"/ / / / / / / / / / / / / / / / / / / / / / / / / / / / / / / / / / / / / / / / / / / / / / / / / / / / / / / / / / / / / / / / / / / / / / / / / / / / / / / / / / / / / / / / +.G G q ",
"/ / / / / / / / / / / / / / / / / / / / / / / / / / / / / / / / / / / / / / / / / / / / / / / / / / / / / / / / / / / / / / / / / / / / / / / / / / / / / / / / / / / / / / / / +.G G q ",
"/ / / / / / / / / / / / / / / / / / / / / / / / / / / / / / / / / / / / / / / / / / / / / / / / / / / / / / / / / / / / / / / / / / / / / / / / / / / / / / / / / / / / / / / / +.G G 0 ",
") ) / / / / / / / / / / / / / / / / / / / / / / / / / / / / / / / / / / / / / / / / / / / / / / / / / / / / / / / / / / / / / / / / / / / / / / / / / / / / / / / / / / / / / / +.G G 7 ",
") ) / / / / / / / / / / / / / / / / / / / / / / / / / / / / / / / / / / / / / / / / / / / / / / / / / / / / / / / / / / / / / / / / / / / / / / / / / / / / / / / / / / / / / / +.G G 7 ",
") ) ) / / / / / / / / / / / / / / / / / / / / / / / / / / / / / / / / / / / / / / / / / / / / / / / / / / / / / / / / / / / / / / / / / / / / / / / / / / / / / / / / / / / / / +.G G 6 ",
") ) ) / / / / / / / / / / / / / / / / / / / / / / / / / / / / / / / / / / / / / / / / / / / / / / / / / / / / / / / / / / / / / / / / / / / / / / / / / / / / / / / / / / / / / +.G G 5 ",
") ) ) / / / / / / / / / / / / / / / / / / / / / / / / / / / / / / / / / / / / / / / / / / / / / / / / / / / / / / / / / / / / / / / / / / / / / / / / / / / / / / / / / / / / / +.G G 1 ",
") / / / / / / / / / / / / / / / / / / / / / / / / / / / / / / / / / / / / / / / / / / / / / / / / / / / / / / / / / / / / / / / / / / / / / / / / / / / / / / / / / / / / / / / q.G G < ",
") / / / / / / / / / / / / / / / / / / / / / / / / / / / / / / / / / / / / / / / / / / / / / / / / / / / / / / / / / / / / / / / / / / / / / / ) ) ) / / / / / / / / / / / / / / a.G G > ",
") ) / / / / / / / / / / / / / / / / / / / / / / / / / / / / / / / / / / / / / / / / / / / / / / / / / / / / / / / / / / / / / / / / / / / / / ) ) ) ) / / / / / / / / / / / / / a.G G ; ",
") ) ) ) / / / / / / / / / / / / / / / / / / / / / / / / / / / / / / / / / / / / / / / / / / / / / / / / / / / / / / / / / / / / / / / / / / / ) ) ) ) ) / / / / / / / / / ) ) ) a.K G & ",
") ) ) ) / / / / / / / / / / / / / / / / / / ) ) ) ) / / / / / / / / / / / / / / / / / / / / / / / / / / / / / / / / / / / / / / / / / / / / / / / / ) ) / / / / / / / / / ) ) ) a.G G # ",
") ) ) ) ) ) ) / / / / / / / / / / / / / / / ) ) ) ) ( / / / / / / / / / / / / / / / / / / / / / / / / / / / / / / / / / / / / / / / / / / / / / / / / / / / / / / ) ) / / ) ) ) a.F G o ",
"a.) ) ) ) ) ) / / / / / / / / / / / / / / / ) ) ) ) ( / / / / / / / / / / / / / / / / / / / / / / / / / / / / / / / / / / / / / / / / / / / / / / / / / / / / / / ) ) ) ) ) ) a.! F F X ",
"_ a.a.a.a.a.a.a.a.a.a.a.a.a.w.w.6.2.*.&.@.o.o.o.o.X.X.X.X.X. . .}  .} ] ] ` ' ' ] ] ] [ } { } ..o.O.@.#.#.#.$.$.$.#.%.-.*.*.;.;.;.;.;.;.;.;.;.:.,.3.3.3.3.3.a.a.a.a.a.a.a.a.a.! ! ! F . "
};
