/* XPM */
static char *f7a5f56db2dd4880dab03e2f6eca0016n9ynsNW09VUkCayY[] = {
/* columns rows colors chars-per-pixel */
"64 64 224 2 ",
"   c #5B3A26",
".  c None",
"X  c #5F3C28",
"o  c #665243",
"O  c #593924",
"+  c #604736",
"@  c #705848",
"#  c #705A49",
"$  c #725B4A",
"%  c #725C4B",
"&  c #735D4C",
"*  c #735D4D",
"=  c #745D4D",
"-  c #745E4E",
";  c #745F4F",
":  c #725C4C",
">  c #725D4C",
",  c #725D4D",
"<  c #715D4D",
"1  c #725E4E",
"2  c #735E4F",
"3  c #715C4C",
"4  c #715C4B",
"5  c #705B4B",
"6  c #705A4A",
"7  c #715B4A",
"8  c #715A4A",
"9  c #705949",
"0  c #705948",
"q  c #6F5948",
"w  c #6F5848",
"e  c #6F5847",
"r  c #6E5746",
"t  c #6E5645",
"y  c #6D5644",
"u  c #8E8C81",
"i  c #8D8B80",
"p  c #88867A",
"a  c #878579",
"s  c #8C8B7F",
"d  c #8A887C",
"f  c #8A887D",
"g  c #89877C",
"h  c #8F8D82",
"j  c #949087",
"k  c #8D8B7F",
"l  c #8B897E",
"z  c #8C8A7F",
"x  c #88867B",
"c  c #87857A",
"v  c #89877B",
"b  c #95938B",
"n  c #6F6A5F",
"m  c #939188",
"M  c #6E6A60",
"N  c #604736",
"B  c #8C8A7E",
"V  c #8F8D84",
"C  c #686257",
"Z  c #5E4634",
"A  c #8E8B82",
"S  c #676155",
"D  c #5F4736",
"F  c #8D8A81",
"G  c #604837",
"H  c #8C8A80",
"J  c #614938",
"K  c #624A38",
"L  c #624A39",
"P  c #676256",
"I  c #676156",
"U  c #634A39",
"Y  c #634B3A",
"T  c #634B3B",
"R  c #8B897D",
"E  c #8E8C80",
"W  c #918F84",
"Q  c #939086",
"!  c #918F85",
"~  c #8F8B82",
"^  c #8C887F",
"/  c #8A867D",
"(  c #8B887F",
")  c #908D83",
"_  c #8C8880",
"`  c #8B877F",
"'  c #89867E",
"]  c #928F85",
"[  c #868478",
"{  c #7D786D",
"}  c #736D64",
"|  c #7B776F",
" . c #756F66",
".. c #7F7B71",
"X. c #88847A",
"o. c #6F695F",
"O. c #78736A",
"+. c #79746A",
"@. c #959388",
"#. c #8D8B81",
"$. c #78746A",
"%. c #63594C",
"&. c #6B594B",
"*. c #6F675C",
"=. c #848178",
"-. c #848177",
";. c #625B4E",
":. c #6A584B",
">. c #6D6255",
",. c #7D7A70",
"<. c #908E84",
"1. c #8B897F",
"2. c #7B786D",
"3. c #64584A",
"4. c #5D3E2A",
"5. c #73695D",
"6. c #86837A",
"7. c #675F53",
"8. c #5D3F2C",
"9. c #6C5C4D",
"0. c #807E74",
"q. c #848275",
"w. c #848073",
"e. c #858377",
"r. c #858276",
"t. c #868479",
"y. c #634C3B",
"u. c #8F8D83",
"i. c #6A6559",
"p. c #908D84",
"a. c #6C675C",
"s. c #6D695F",
"d. c #654D3D",
"f. c #706C62",
"g. c #674F40",
"h. c #8E8C82",
"j. c #908E83",
"k. c #918D85",
"l. c #918E84",
"z. c #8D8A82",
"x. c #868578",
"c. c #817C72",
"v. c #77726A",
"b. c #7C7770",
"n. c #858077",
"m. c #8A877C",
"M. c #746F66",
"N. c #7A756D",
"B. c #7B766D",
"V. c #8E8B81",
"C. c #8E8D82",
"Z. c #8E8C83",
"A. c #686357",
"S. c #634A3A",
"D. c #908D82",
"F. c #7B766B",
"G. c #73685D",
"H. c #70695D",
"J. c #848077",
"K. c #878378",
"L. c #645E51",
"P. c #72675C",
"I. c #71685D",
"U. c #878578",
"Y. c #7B776D",
"T. c #605345",
"R. c #593723",
"E. c #706659",
"W. c #85837A",
"Q. c #635B4E",
"!. c #593925",
"~. c #695849",
"^. c #7F7C73",
"/. c #634B39",
"(. c #848176",
"). c #7D796C",
"_. c #7B7263",
"`. c #817D71",
"'. c #878479",
"]. c #7E7B6F",
"[. c #7B7264",
"{. c #807A6D",
"}. c #858378",
"|. c #87867A",
" X c #614A38",
".X c #614937",
"XX c #604937",
"oX c #604836",
"OX c #928F87",
"+X c #5F4735",
"@X c #939189",
"#X c #95928A",
"$X c #5E4533",
"%X c #929086",
"&X c #8C8980",
"*X c #645E52",
"=X c #5C4432",
"-X c #99968E",
";X c #9B9991",
":X c #99978E",
">X c #98968E",
",X c #98968D",
"<X c #97948A",
"1X c #96938A",
"2X c #949288",
"3X c #939187",
"4X c #949289",
"5X c #949188",
"6X c #939087",
"7X c #918E85",
"8X c #8F8C83",
"9X c #918F86",
"0X c #949189",
"qX c #959289",
"wX c #959389",
"eX c #98958D",
"rX c #98978E",
"tX c #9A9890",
"yX c #9B9992",
"uX c #929087",
"iX c #7B796E",
"pX c #6A655A",
"aX c #5B4230",
"sX c white",
/* pixels */
"@ # $ % & * = % % % % % % = - ; ; * : : : : : : : : : : : : : : > , , < < 1 2 3 4 5 6 6 7 : % 8 9 0 q q q w e # 0 e r t y . X   ",
"u u u u u u i p a a a a a s u u u d a a a a a a a a a a a a a a a a a a a f i p a a a p i u u g a a a a a a p i u u u u h j o O ",
"u u k d p p p a a a a a a l z z x a a a a a a a a a a a a a a a a a a a a c p a a a a p z v p a a a a a a a a p x i u u h b n + ",
"u u p a a a a a a a a a a a a a a a a a a a a a a a a a a a a a a a a a a a a a a a a a a a a a a a a a a a a a a d z i l m M N ",
"u u B a a a a a a a a a a a a a a a a a a a a a a a a a a a a a a a a a a a a a a a a a a a a a a a a a a a a a a a p x v V C Z ",
"u z d a a a a a a a a a a a a a a a a a a a a a a a a a a a a a a a a a a a a a a a a a a a a a a a a a a a a a a a a x u A S D ",
"i g a a a a a a a a a a a a a a a a a a a a a a a a a a a a a a a a a a a a a a a a a a a a a a a a a a a a a a a a a a d F S G ",
"c a a a a a a a a a a a a a a a a a a a a a a a a a a a a a a a a a a a a a a a a a a a a a a a a a a a a a a a a a a a p H S J ",
"a a a a a a a a a a a a a a a a a a a a a a a a a a a a a c c a a a a a a a a a a a a a a a a a a a a a a a a a a a a a p H S J ",
"a a a a a a a a a a a a a a a a a a a a a a a a a a a a d i i v a a a a a a a a a a a a a a a a a a a a a a a a a a a a p H S J ",
"a a a a a a a a a a a a a a a a a a a a a a a a a a a a f u u g a a a a a a a a a a a a a a a a a a a a a a a a a a a a p H S K ",
"a a a a a a a a a a a a a a a a a a a a a a a a a a a a p B k i l a a a a a a a a a a a a a a a a a a a a a a a a a a a p H S L ",
"a a a a a a a a a a a a a a a a a a a a a a a a a a a a a a a d d a a a a a a a a a a a a a a a a a a a a a a a a a a a p H P L ",
"a a a a a a a a a a a a a a a a a a a a a a a a a a a a a a a a a a a a a a a a a a a a a a a a a a a a a a a a a a a a p H I U ",
"a a a a a a a a a a a a a a a a a a a a a a a a a a a a a a a a a a a a a a a a a a a a a a a a a a a a a a a a a a a a p H S Y ",
"a a a a a a a a a a a a a a a a a a a a a a a a a c a a a a a a a a a a a a a a a a a a a a a a a a a a a a a a a a a a p H S Y ",
"a a a a a a a a a a a a a a a a a a a a a a a a l B a a a a a a a a a a a a a a a p g g g p a a v p a a a a a a a a a a p H S T ",
"a a a a a a a a a a a a a a a a a a a a a a a a v v a a a a a a a a a a a a a a g z u u u v a p i d a a a a a a a a a a p H S T ",
"a a a a a a a a a a a a a a a a a R E i z d a a a a a a a a a a a a a a a a a v W Q ! W z v p a p a a a a a a a a a a a p H S T ",
"a a a a a a a a a a a a a a a a R ~ ^ ^ / ( g a a a a a a a a a a a a a a a v ) _ ` ' ^ ] u l a a a a a a a a a a a a a p H S T ",
"a a a a a a a a a a a a a a a [ h { } |  ...z a a a a a a a a a a a a a a a l X.o.| O.+.@.z p a a a a a a a a a a a a a p H S T ",
"a a a a a a a a a a a a a a a a #.$.%.&.*.=.z a a a a a a a a a a a a a a a f -.;.:.>.,.<.a a a a a a a a a a a a a a a p H S T ",
"z 1.p a a a a a a a a a a a a a i 2.3.4.5.6.l a a a a a a a a a a a a a a a d -.7.8.9.0.#.a a a a a a a a a a a a a a a p H S T ",
"u z c a a a a a a a a a a a a a c [ q.w.e.a a a a a a a a a a a a a a a a a a a r.w.r.t.c a a a a a a a a a a a a a a a p H S T ",
"u k f a a a a a a a a a a a a a a a a a a a a a a a a a a a a a a a a a a a a a a a a a a a a a c a a a a a a a a a a a p H S T ",
"u u u d a a a a a a a a a a a a a a a a a a a a a a a a a a a a a a a a a a a a a a a a a a a l i R a a a a a a a a a a p H S T ",
"u u u f a a a a a a a a a a a a a a a a a a a a a a a a a a a a a a a a a a a a a a a a a a a B u i p a a a a a a a a a p H S y.",
"u u v p a a a a a a a a a a a a a a a a a a a a a a a a a a a a a a a a a a a a a a a a a a a p p v x a a a a a a a a a p H I y.",
"u u p a a a a a a a a a a a a a a a a a a a a a a a a a a a a a a a a a a a a a a a a a a a a a a l z a a a a a a a a a p H P y.",
"z v a a a a a a a a a a a a a a a a a a a a a a a a a a a a a a a a a a a a a a a a a a a a a a a p x a a a a a a a a p p H S T ",
"l a a a a a a a a a a a a a a a a a a a a a a a a a a a a a a a a a a a a a a a a a a a a a a a a a a a a a a a a a a k l H S T ",
"i v a a a a a a a a a a a a a a a a a a a a a a a a a a a a a a a a a a a a a a a a a a a a a a a a a a a a a a a a a i B H S T ",
"z v a a a a a a a a a a a a a a a a a a a a a a a a a a a a a a a a a a a a a a a a a a a a a a a a a a a a a a a p g i u A S T ",
"a a a a a a a a a a a a a a a a a a a a a a a a a a a a a a a a a a a a a a a a a a a a a a a a a a a a a a a a a v u u h u.i.T ",
"a a a a a a a a a a a a a a a a a a a a a a a a a a a a a a a a a a a a a a a a a a a a a a a a a a a a a a a a a a p i h p.a.Y ",
"a a a a a a a a a a a a a a a a a a a a a a a a a a a a a a a a a a a a a a a a a a a a a a a a a a a a a a a a a a a k h V s.d.",
"a a a a a a a a a a a a a a a a a a a a a a a a a a a a a a a a a a a a a a a a a a a a a a a a a a a a a a a a p p a p B p.f.g.",
"a a a a a a a a a a a a a a a a a a a a a a a a a a a a a a a a a a a a a a a a a a a a a a a a a a a a a a a a l z a a g h.a.d.",
"a a a a a a a a a a a a a a a a a a a a p p a a a a a a a a a a a a a a a a a a a a a a a a a a a a a a a a a a p x a a p H S Y ",
"a a a a a a a a a a a a a a a a a a v d k u v a a a a a a a a a a a a a a a a a a a a a a a a a a a a a a a a a a a a a p H S Y ",
"a a a a a a a a a a a a a a a a a p u j.j.h v a a a a a a a a a a a a a a a a a v v v p a a a a a a a a a a a a a a a a p H S Y ",
"a a a a a a a a a a a a a a a a v A A k.j l.v a a a a a a a a a a a a a a a p i z.F F z.g a a a a a a a a a a a a a a d u A I Y ",
"a a a a a a a a a a a a a a a x.h c.v.b.O.n.i a a a a a a a a a a a a a a a R m.M.b.N.B.V.a a a a a a a a a a a a a a k C.Z.A.S.",
"p a a a a a a a a a a a a a a [ D.F.7.G.H.J.z a a a a a a a a a a a a a a a R K.L.P.I.B.h.a a a a a a a a a a a a a a p v #.A.U ",
"i x a a a a a a a a a a a a a U.u Y.T.R.E.W.1.a a a a a a a a a a a a a a a f =.Q.!.~.^.h.a a a a a a a a a a a a a a a p H P /.",
"u d a a a a a a a a a a a a a a v (.)._.`.'.p a a a a a a a a a a a a a a a p t.].[.{.}.v a a a a a a a a a a a a a a a |.H S /.",
"u d a a a a a a a a a a a a a a a a p x |.a a a a a a a a a a a a a a a a a a a p x p a a a a a a a a a a a a a a a a p f F S L ",
"g p a a a a a a a a a a a a a a a a a a a a a a a a a a a a a a a a a a a a a a a a a a a a a a a a a a a a a a a a a x h A S L ",
"a a a a a a a a a a a a a a a a a a a a a a a a a a a a a a a a a a a a a a a a a a a a a a a a a a a a a a a a a a a x h A S L ",
"a a a a a a a a a a a a a a a a a a a a a a a a d f a a a a a a a a a a a a a a a a a a a a a a a a a a a a a a a a a p f F S L ",
"a a a a a a a a a a a a a a a a a a a a a a a a B u i p a a a a a a a a a a a a a a a a a a a a a a a a a a a a a a a a |.H S L ",
"a a a a a a a a a a a a a a a a a a a a a a a a v l u p x f a a a a a a a a a a a a a a a a a a a a a a a a a a a a a a p H S K ",
"a a a a a a a a a a a a a a a a a a a a a a a a a a x a g 1.a a a a a a a a a a a a a a a a a a a a a a a a a a a a a a p H S K ",
"a a a a a a a a a a a a a a a a a a a a a a a a a a a a a a a a a a a a a a a a a a a a a a a a a a a a a a a a a a a a p H S  X",
"p a a a a a a a a a a a a a a a a a a a a a a a a a a a a a a a a a a a a a a a a a a a a a a a a a a a a a a a a a a a p H S J ",
"u d a a a a a a a a a a a a a a a a a a a a a a a a a a a a a a a a a a a a a a a a a a a a a a a a a a a a a a a a a a p H S .X",
"u z p a a a a a a a a a a a a a a a a a a a a a a a a a a a a a a a a a a a a a a a a a a a a a a a a a a a a a a a a a p H S XX",
"u u p a a a a a a a a a a a a a a a a a a a a a a a a a a a a a a a a a a a a a a a a a a a a a a a a a a a a a a a a a p H S G ",
"k d c a a a a a a a a a a a a a a a a a a a a a a a a a a a a a a a a a a a a a a a a a a a a a a a a a a a a a a a a a p h.I oX",
"z a a a a a a a a a a a a a a a a a a a a a a a a a a a a a a a a a a a a a a a a a a a a a a a a f i f a a a a a a a a p OXP +X",
"u z g a a a a a a a a a a a a a a a a a a a a a a a a a a a a a a a a a a a a a a a a a a a a a a l u u R a a a a a a d l @XC Z ",
"u u k p p a a a a a a a a a a R z z x a a a a a a a a a a a a a a a a a a a a a a a a a a a a a a p v l z a a a p p a i h #XP $X",
"m u u u z a a a a a a a a a a z u u 1.a a a a a a a a a a a a a a a a a a a a a a a a a a a a a a a a a a a a a l i d i %X&X*X=X",
"-X;X;X;X;X:X>X>X:X,X<X1X2X3X%Xm 4X5X6X! ! 7X<.<.p.8XA 8Xu.u.p.p.<.9X%X6X3X3X3X3X3Xm 3X5X0X0X0X0X0X4XqXwXwXwXeXrXtX;X;XyXuXiXpXaX"
};
