/* XPM */
static char *abaeaa8c85354a778f21cf8882099c68bg2dpHOs4SsfemYo[] = {
/* columns rows colors chars-per-pixel */
"31 64 252 2 ",
"   c None",
".  c #6A4D39",
"X  c #A9A190",
"o  c #AEA69A",
"O  c #A9A191",
"+  c #A8A091",
"@  c #A8A090",
"#  c #AFA79A",
"$  c #AFA69A",
"%  c #A9A193",
"&  c #AAA193",
"*  c #A9A192",
"=  c #AAA292",
"-  c #B0A79B",
";  c #AFA69B",
":  c #AAA294",
">  c #AAA293",
",  c #AAA295",
"<  c #B0A89B",
"1  c #AFA79B",
"2  c #ABA395",
"3  c #ABA396",
"4  c #ACA495",
"5  c #ABA495",
"6  c #ACA497",
"7  c #ACA496",
"8  c #B0A89C",
"9  c #ACA597",
"0  c #ADA598",
"q  c #B0A99C",
"w  c #ADA597",
"e  c #B1A99C",
"r  c #AFA79C",
"t  c #896F5C",
"y  c #ADA698",
"u  c #AEA699",
"i  c #8E7665",
"p  c #B1A99D",
"a  c #846552",
"s  c #A29A8D",
"d  c #7E6352",
"f  c #A1998B",
"g  c #ADA699",
"h  c #7A5C4A",
"j  c #A19A8C",
"k  c #795E4B",
"l  c #A19A8A",
"z  c #A1998C",
"x  c #795D4C",
"c  c #B1A99E",
"v  c #7C5F4B",
"b  c #8B7565",
"n  c #7C604D",
"m  c #AEA79A",
"M  c #7B5E4D",
"N  c #A1988B",
"B  c #A1998A",
"V  c #785C4A",
"C  c #B2AA9E",
"Z  c #684B36",
"A  c #785A48",
"S  c #A0988A",
"D  c #745643",
"F  c #6F5341",
"G  c #A1988A",
"H  c #A09889",
"J  c #705340",
"K  c #60412D",
"L  c #A69E90",
"P  c #775946",
"I  c #9F9688",
"U  c #9F9689",
"Y  c #9E9383",
"T  c #9E9384",
"R  c #725543",
"E  c #A09689",
"W  c #9F9788",
"Q  c #9F9787",
"!  c #6E523F",
"~  c #A7A091",
"^  c #60402D",
"/  c #62432E",
"(  c #A59D8F",
")  c #9B9181",
"_  c #9C9181",
"`  c #9C9180",
"'  c #9C9281",
"]  c #9D9282",
"[  c #9E9382",
"{  c #9E9483",
"}  c #9E9485",
"|  c #9E9585",
" . c #A79F91",
".. c #A49C8E",
"X. c #9B9080",
"o. c #9B907F",
"O. c #9D9281",
"+. c #9D9383",
"@. c #9D9384",
"#. c #61422D",
"$. c #A39A8B",
"%. c #9A8F7F",
"&. c #9A8F7E",
"*. c #9A907E",
"=. c #9A907F",
"-. c #9C9282",
";. c #A29989",
":. c #7B624E",
">. c #795E4A",
",. c #775B47",
"<. c #7A5E4A",
"1. c #7A5F4B",
"2. c #7C624E",
"3. c #998E7D",
"4. c #9A8F7D",
"5. c #7A5F4A",
"6. c #775A45",
"7. c #7C604C",
"8. c #7E6450",
"9. c #B7B0A5",
"0. c #48819F",
"q. c #46809E",
"w. c #988D7C",
"e. c #998E7C",
"r. c #998F7D",
"t. c #A49C8D",
"y. c #62422E",
"u. c #9E9685",
"i. c #70A1B4",
"p. c #548BA8",
"a. c #988D7B",
"s. c #A39B8D",
"d. c #61422E",
"f. c #9F9685",
"g. c #988D7A",
"h. c #988C7A",
"j. c #988C79",
"k. c #978B79",
"l. c #978C79",
"z. c #978C7A",
"x. c #9E9684",
"c. c #978B78",
"v. c #968A77",
"b. c #A19989",
"n. c #60412C",
"m. c #9D9381",
"M. c #968B78",
"N. c #74513A",
"B. c #968B79",
"V. c #9F9686",
"C. c #9D9380",
"Z. c #968A78",
"A. c #6F4C36",
"S. c #958977",
"D. c #958A77",
"F. c #A09686",
"G. c #60402B",
"H. c #6D4B34",
"J. c #958976",
"K. c #6E4C35",
"L. c #5E3F2B",
"P. c #9B917E",
"I. c #6A4A35",
"U. c #6C4B35",
"Y. c #9E9482",
"T. c #5E3F2A",
"R. c #9A8F7C",
"E. c #958A76",
"W. c #9D927F",
"Q. c #61412C",
"!. c #9A8F7B",
"~. c #948875",
"^. c #958975",
"/. c #9C917E",
"(. c #9A8E7A",
"). c #938774",
"_. c #9C917D",
"`. c #998E7A",
"'. c #948874",
"]. c #9C907D",
"[. c #938772",
"{. c #938673",
"}. c #938773",
"|. c #9B8F7C",
" X c #5D3E2A",
".X c #928671",
"XX c #928572",
"oX c #928673",
"OX c #928672",
"+X c #9A8E79",
"@X c #998D79",
"#X c #928570",
"$X c #918470",
"%X c #918471",
"&X c #918571",
"*X c #918572",
"=X c #5C3D2A",
"-X c #988D78",
";X c #90836F",
":X c #908470",
">X c #908471",
",X c #998C78",
"<X c #5B3C29",
"1X c #978B77",
"2X c #8F836E",
"3X c #90836E",
"4X c #90846E",
"5X c #90846F",
"6X c #91846F",
"7X c #91846E",
"8X c #998C77",
"9X c #8F826D",
"0X c #90826E",
"qX c #998D78",
"wX c #593A27",
"eX c #978A76",
"rX c #8E816C",
"tX c #8E826B",
"yX c #8E826C",
"uX c #8F816D",
"iX c #8F826C",
"pX c #978A75",
"aX c #5F402C",
"sX c #968A75",
"dX c #8D806B",
"fX c #8D816B",
"gX c #8E816B",
"hX c #8F816C",
"jX c #8E806B",
"kX c #978A74",
"lX c #5A3B28",
"zX c #968975",
"xX c #8D806A",
"cX c #8E806A",
"vX c #968973",
"bX c #958974",
"nX c #8D7F69",
"mX c #8D7F6A",
"MX c #8D816A",
"NX c #8E816A",
"BX c #8C7F69",
"VX c #968872",
"CX c #53321D",
"ZX c #948873",
"AX c #8C7E68",
"SX c #8C7E67",
"DX c #978A73",
"FX c #573622",
"GX c #583521",
"HX c #5A3A27",
"JX c #593724",
"KX c white",
/* pixels */
"                                                              ",
"                                                              ",
"                                                              ",
"                                                              ",
"                                                              ",
"                                                              ",
"                                                              ",
"                                                              ",
"                                                              ",
"                                                              ",
"                                                              ",
"                                                              ",
"                                                              ",
"                                                              ",
"                . . . . . . . . . . . . . . . . .             ",
"              . X X X X X X X X X X X X X X X X X .           ",
"            . o O X O X O O X X X X X X + + + + @ # .         ",
"            . $ % & % % % % & & * * * O = = * * + - .         ",
"            . ; : > : , , , , , : : : : : : : > > < .         ",
"            . 1 2 2 2 3 3 3 3 3 3 3 3 3 3 4 5 2 2 < .         ",
"            . 1 2 3 3 6 6 6 6 6 6 6 6 3 7 7 7 7 7 8 .         ",
"            . 1 6 6 6 9 0 0 0 0 0 0 0 6 6 6 6 9 9 8 .         ",
"            . 1 6 9 6 9 0 0 0 0 0 0 0 0 0 6 6 9 9 q .         ",
"            . 1 9 9 0 0 0 0 0 0 0 0 0 0 0 0 w 9 9 e .         ",
"            . r 0 0 0 t 0 0 0 0 0 y 0 u u i u 0 0 p .         ",
"            . 8 0 0 a s d 0 0 0 0 0 0 u a f d u y p .         ",
"            . 8 g h j j j k 0 0 0 0 u h l z f x o p .         ",
"            . c # v f b f n 0 0 0 m m M N b B V m C .         ",
"            Z c A f b b b S D p p p F G b b b H J c .         ",
"            K L P I I U I I P Y T T R E W W Q W ! ~ ^         ",
"            / ( ) _ ` ` _ _ ' ] ] ] ] ] [ { } } |  ./         ",
"            / ..X.X.o.o.o.X.X.X.X.X.X.` _ _ O.+.@.( /         ",
"            #.$.%.%.&.&.&.*.%.%.%.=.%.o.o.X.` ' -.../         ",
"            #.;.&.:.>.,.<.1.2.3.3.4.:.5.6.7.7.8.=.../         ",
"            #.Q 3.3.9.0.q.9.w.e.e.e.e.9.0.q.9.r.r.t./         ",
"            y.u.w.w.9.i.p.9.a.a.a.a.a.9.i.p.9.e.3.s.y.        ",
"            d.f.g.a.h.h.h.h.h.h.j.k.l.l.z.h.g.a.e.$.d.        ",
"            #.x.z.l.k.c.c.c.c.c.v.v.c.c.c.k.k.j.h.b.#.        ",
"            n.m.c.c.c.c.c.M.M.v.N.v.v.v.v.M.B.k.k.V.n.        ",
"            n.C.c.Z.Z.Z.M.Z.v.v.A.S.D.D.v.v.Z.Z.k.F.n.        ",
"            G.' Z.Z.Z.v.v.v.v.H.J.K.J.J.J.J.v.Z.c.f.n.        ",
"            L.P.v.v.v.v.J.J.I.J.J.J.U.J.J.J.J.v.M.Y.n.        ",
"            T.R.J.J.J.J.J.J.J.J.J.J.J.J.J.J.J.J.E.W.Q.        ",
"            L.!.J.J.~.~.~.~.~.~.~.~.~.~.~.J.J.~.^./.Q.        ",
"            T.(.^.~.~.).).).).).).).).).).~.~.~.~._.Q.        ",
"            L.`.'.'.).).).).).).).).).).).).~.'.).].Q.        ",
"            L.`.[.{.{.}.).).).).).).).}.}.}.).).}.|.Q.        ",
"             X`..XXXXXoXoXOXOXoXoXoXoXoXoX{.{.}.}.+XK         ",
"             X@X#X$X$X%X&X&X&X*XOXOXOXOXOXXXXXOXOX@XK         ",
"            =X-X;X;X:X:X:X:X:X>X>X>X>X>X>X>X$X$X#X,Xn.        ",
"            <X1X2X;X3X4X4X4X5X5X5X5X5X:X:X:X;X6X7X8Xn.        ",
"            <X1X9X9X9X9X9X9X9X9X9X9X9X9X3X3X3X3X0XqXn.        ",
"            wXeXrXtXyX9XuXuXuXuXuXuXuX9X9X9XiXyX9XpXaX        ",
"            wXsXdXfXgXgXhXhXhXhXhXhXhXrXhXiXrXrXjXkXlX        ",
"            wXzXxXdXfXgXgXgXgXgXgXgXgXrXgXgXjXjXcXvXlX        ",
"            wXbXnXnXmXxXMXMXNXNXNXNXcXcXcXxXmXnXBXVXlX        ",
"            CXZXnXnXnXnXnXnXnXnXmXmXmXmXnXnXnXAXSXDXFX        ",
"              GXHXHXHXHXHXHXHXHXHXHXHXHXHXHXHXHXHXJX          ",
"                                                              ",
"                                                              ",
"                                                              ",
"                                                              ",
"                                                              ",
"                                                              "
};
