/* XPM */
static char *result[] = {
/* columns rows colors chars-per-pixel */
"62 63 135 2 ",
"   c #868579",
".  c #88877B",
"X  c #5E4532",
"o  c #624937",
"O  c #675544",
"+  c #918F88",
"@  c #929088",
"#  c #94928B",
"$  c #99978F",
"%  c #665444",
"&  c #6D695F",
"*  c #6D685F",
"=  c #5B4231",
"-  c #6C685E",
";  c #6C675E",
":  c #6B675D",
">  c #6C665E",
",  c #6B665D",
"<  c #6B655D",
"1  c #6A655C",
"2  c #6A665C",
"3  c #593D2A",
"4  c #6A645C",
"5  c #53321E",
"6  c #69645B",
"7  c #69635B",
"8  c #68635A",
"9  c #676259",
"0  c #68625A",
"q  c #676159",
"w  c #4F2913",
"e  c #5C5247",
"r  c #4F311E",
"t  c #5C5147",
"y  c #5D5247",
"u  c #5D5248",
"i  c #4F3625",
"p  c #584132",
"a  c #543624",
"s  c #5E5146",
"d  c #5D4D41",
"f  c #5F5349",
"g  c #563D2C",
"h  c #563B2A",
"j  c #553726",
"k  c #553827",
"l  c #583F30",
"z  c #76726C",
"x  c #76726B",
"c  c #757169",
"v  c #757068",
"b  c #747068",
"n  c #746F67",
"m  c #736E66",
"M  c #75716A",
"N  c #736E67",
"B  c #6C675F",
"V  c #736F68",
"C  c #6D6861",
"Z  c #74706A",
"A  c #75716B",
"S  c #747069",
"D  c #746F69",
"F  c #533320",
"G  c #533321",
"H  c #726E67",
"J  c #5B483B",
"K  c #573C2D",
"L  c #512D19",
"P  c #512E19",
"I  c #512E1A",
"U  c #52301C",
"Y  c #543422",
"T  c #5B4435",
"R  c #583E2E",
"E  c #52311E",
"W  c #533220",
"Q  c #53321F",
"!  c #52301D",
"~  c #52301E",
"^  c #5B4538",
"/  c #543321",
"(  c #563929",
")  c #5B473A",
"_  c #69645C",
"`  c #675F56",
"'  c #645850",
"]  c #63574D",
"[  c #63564C",
"{  c #62564B",
"}  c #62554B",
"|  c #62554A",
" . c #625449",
".. c #573D2E",
"X. c #5D4C41",
"o. c #665F58",
"O. c #563C2C",
"+. c #615851",
"@. c #573D2D",
"#. c #594032",
"$. c #5E4F45",
"%. c #594234",
"&. c #655C55",
"*. c #594235",
"=. c #655D56",
"-. c #5E4F44",
";. c #5A4538",
":. c #543523",
">. c #512F1B",
",. c #5C4B3E",
"<. c #5B493C",
"1. c #5D5044",
"2. c #5D4F43",
"3. c #5D4E43",
"4. c #5D4E42",
"5. c #5D4D42",
"6. c #522F1B",
"7. c #553927",
"8. c #563A28",
"9. c #573E2E",
"0. c #5A4638",
"q. c #60564E",
"w. c #60554C",
"e. c #60554D",
"r. c #60564D",
"t. c #5C4D41",
"y. c #60564F",
"u. c #61574F",
"i. c #5A4537",
"p. c #56321C",
"a. c #767469",
"s. c #5E3B25",
"d. c #655444",
"f. c #86847B",
"g. c #666057",
/* pixels */
"                          .   X                                                           .   X                             ",
"                              o                                                               o                             ",
"                              O                                                               O                             ",
"+ + + + + + + + + + @ # $ $ $ % # $ $ $ # # # # # # # # # # # + + + + + + + + + + + @ # $ $ $ % # $ $ $ # # # # # # # # # # ",
"& & * * * * * * * & & & & & * = * * * - * * * * * ; - - - - - & & & * * * * * * * & & & & & * = * * * - * * * * * ; - - - - ",
"* * * * * * * * * * * * & * * = * * - - - * * * - ; ; ; ; ; ; * * * * * * * * * * * * * & * * = * * - - - * * * - ; ; ; ; ; ",
"* * * * * * * - - - - - - ; ; = * - - ; ; - - - ; ; ; ; ; ; ; * * * * * * * * - - - - - - ; ; = * - - ; ; - - - ; ; ; ; ; ; ",
"- - - - - - - - - - ; ; ; ; ; = ; ; ; ; ; : : ; ; ; ; ; > , , * - - - - - - - - - - ; ; ; ; ; = ; ; ; ; ; : : ; ; ; ; ; > , ",
"; ; ; ; ; ; ; ; ; ; : : : : : = , , , , , , , , , , , , , , , ; ; ; ; ; ; ; ; ; ; ; : : : : : = , , , , , , , , , , , , , , ",
", , , , , , , , , , , , , , , = , , , , , < < 1 1 1 1 2 2 2 2 : , , , , , , , , , , , , , , , = , , , , , < < 1 1 1 1 2 2 2 ",
"1 1 1 1 1 1 1 1 1 1 1 < < < < 3 < < 1 4 4 4 4 4 4 4 4 1 1 1 1 1 1 1 1 1 1 1 1 1 1 1 1 < < < < 3 < < 1 4 4 4 4 4 4 4 4 1 1 1 ",
"1 1 1 1 1 1 1 1 1 1 1 1 1 4 1 5 6 6 6 6 6 6 6 6 6 6 6 6 6 6 6 1 1 1 1 1 1 1 1 1 1 1 1 1 1 4 1 5 6 6 6 6 6 6 6 6 6 6 6 6 6 6 ",
"6 4 6 6 6 6 6 6 6 6 6 6 6 6 6 5 7 7 7 7 7 7 6 6 6 6 6 6 6 6 6 6 6 4 6 6 6 6 6 6 6 6 6 6 6 6 6 5 7 7 7 7 7 7 6 6 6 6 6 6 6 6 ",
"7 7 7 7 7 7 7 7 7 7 7 7 7 8 8 5 8 8 8 8 8 8 8 8 8 8 8 8 8 7 7 7 7 7 7 7 7 7 7 7 7 7 7 7 7 8 8 5 8 8 8 8 8 8 8 8 8 8 8 8 8 7 ",
"9 9 9 9 9 9 0 9 0 0 0 8 8 8 0 5 0 0 0 0 0 0 0 0 0 8 8 0 8 8 8 9 9 9 9 9 9 9 0 9 0 0 0 8 8 8 0 5 0 0 0 0 0 0 0 0 0 8 8 0 8 8 ",
"q q q q q q q q q q q q q q q 5 q q q q q q q q q q q q q q q q q q q q q q q q q q q q q q q 5 q q q q q q q q q q q q q q ",
"q q q q q q q q q q q q q q q w q q q q q q q q q q q q q q q q q q q q q q q q q q q q q q q w q q q q q q q q q q q q q q ",
"w w w w w w w w w w w w w w w e w w w w w w w w w w w w w w w w w w w w w w w w w w w w w w w e w w w w w w w w w w w w w w ",
"e e e e e e e e e e e e e e e e e e e e e e r t t e y y y y u e e e e e e e e e e e e e e e e e e e e e e e r t t e y y y y ",
"e e e e e e e e e e e e e e e e e e e e e e r e e y y y y y u e e e e e e e e e e e e e e e e e e e e e e e r e e y y y y y ",
"e e e e e e e e e e e e e e e e e e e e e e i e e y y y y y u e e e e e e e e e e e e e e e e e e e e e e e i e e y y y y y ",
"e e e e e e e e e e e e e e e e e e e e e e i e e e y y y y u e e e e e e e e e e e e e e e e e e e e e e e i e e e y y y y ",
"e e e e e e e e e e e e e e e e e e e e e e i e e e y y y y u e e e e e e e e e e e e e e e e e e e e e e e i e e e y y y y ",
"e e e e e e e e e e e e e e e e e e e e e e i t t e y y y y y e e e e e e e e e e e e e e e e e e e e e e e i t t e y y y y ",
"q q q q q q q q q q q q q q q q q q q q q q p q q q q q q q q q q q q q q q q q q q q q q q q q q q q q q q p q q q q q q q ",
"q q q q q q q q q q q q q q q q q q q q q q a q q q q q q q q q q q q q q q q q q q q q q q q q q q q q q q a q q q q q q q ",
"s s s s d d d s s s f f f f f f f f p p g h j k l f f f f f f s s s s s d d d s s s f f f f f f f f p p g h j k l f f f f f ",
"* * * * * d d z z z z z z z x x c v v b n n n n n m m m m m m m M x x N m d B B B B B B B B B B B B B B B B B B B B B B B B ",
"q q q q q d V C C C C C C C C C C C C C C C C C C C C C C C C C C C C C C d q q q q q q q q q q q q q q q q q q q q q q q q ",
"q q q q q d Z C C C C C C C C C C C C C C C C C C C C C C C C C C C C C C d q q q q q q q q q q q q q q q q q q q q q q q q ",
"q q q q q d A C C C C C C C C C C C C C C C C C C C C C C C C C C C C C C d q q q q q q q q q q q q q q q q q q q q q q q q ",
"q q q q q d A C C C C C C C C C C C C C C C C C C C C C C C C C C C C C C d q q q q q q q q q q q q q q q q q q q q q q q q ",
"q q q q q d S C C C C C C C C C C C C C C C C C C C C C C C C C C C C C C d q q q q q q q q q q q q q q q q q q q q q q q q ",
"q q q q q p D C C C C C C C C C C C C C C C C C C C C C C C C C C C C C C F q q q q q q q q q q q q q q q q q q q q q q q q ",
"q q q q q G H C C C C C C C C C C C C C C C C C C C C C C C C C C C C C C F q q q q q q q q q q q q q q q q q q q q q q q q ",
"J J K K a L P I U Y j j T T T T T T T T T R E F F F F W Q ! ! ~ E L L P L ^ Q G G G G G G / j ( K K K K K K K K K ) f f f f ",
"_ _ _ _ _ ` ' ] ] ] ] ] [ [ [ { } } } } |  ...X.X.X.X.X.X.X.X.X.X.X.X.X.X.X.X.X.X.X.X.X.X.X.X.X.X.X.X.X.X.X.K B B B B B B B ",
"o.o.o.o.o.o.o.o.o.o.o.o.o.o.o.o.o.o.o.o.o.o.O.X.X.+.+.+.+.+.+.+.+.+.+.+.+.+.+.+.+.+.+.+.+.+.+.+.+.+.+.+.X.X.K o.o.o.o.o.o.o.",
"o.o.o.o.o.o.o.o.o.o.o.o.o.o.o.o.o.o.o.o.o.o.@.+.+.+.+.+.+.+.+.+.+.+.+.+.+.+.+.+.+.+.+.+.+.+.+.+.+.+.+.+.+.X.#.o.o.o.o.o.o.o.",
"o.o.o.o.o.o.o.o.o.o.o.o.o.o.o.o.o.o.o.o.o.o.$.+.+.+.+.+.+.+.+.+.+.+.+.+.+.+.+.+.+.+.+.+.+.+.+.+.+.+.+.+.+.+.%.&.o.o.o.o.o.o.",
"o.o.o.o.o.o.o.o.o.o.o.o.o.o.o.o.o.o.o.o.o.o.$.+.+.+.+.+.+.+.+.+.+.+.+.+.+.+.+.+.+.+.+.+.+.+.+.+.+.+.+.+.+.+.*.=.o.o.o.o.o.o.",
"o.o.o.o.o.o.o.o.o.o.o.o.o.o.o.o.o.o.o.o.o.o.-.+.+.+.+.+.+.+.+.+.+.+.+.+.+.+.+.+.+.+.+.+.+.+.+.+.+.+.+.+.+.+.;.o.o.o.o.o.o.o.",
"o.o.o.o.o.o.o.o.o.o.o.o.o.o.o.o.o.o.o.o.o.o.:.+.+.+.+.+.+.+.+.+.+.+.+.+.+.+.+.+.+.+.+.+.+.+.+.+.+.+.+.+.+.+.:.o.o.o.o.o.o.o.",
"o.o.=.o.o.o.o.o.o.o.o.o.o.o.o.o.o.o.o.o.o.o.Q +.+.+.+.+.+.+.+.+.+.+.+.+.+.+.+.+.+.+.+.+.+.+.+.+.+.+.+.+.+.+.>.o.o.o.o.o.o.o.",
"f f ,.,.<.,.,.1.1.1.1.2.3.4.4.4.4.4.5.:.:.:.6.k k 7.8.9.0.,.,.,.,.,.,.,.q.w.e.r.@.@.@.@.@.@.@.@.9.j j j ! I I :.:.t.t.t.t.t.",
"B B B B B ,.B B B B B B B B B B B B B B B B B B B B B B B B B B B B B B ,.y.u.@.B B B B B B B B B B B B B B B B B B B B B B ",
"o.o.o.o.o.,.o.o.o.o.o.o.o.o.o.o.o.o.o.o.o.o.o.o.o.o.o.o.o.o.o.o.o.o.o.o.o.@.@.o.o.o.o.o.o.o.o.o.o.o.o.o.o.o.o.o.o.o.o.o.o.o.",
"o.o.o.o.o.,.o.o.o.o.o.o.o.o.o.o.o.o.o.o.o.o.o.o.o.o.o.o.o.o.o.o.o.o.o.o.o.@.o.o.o.o.o.o.o.o.o.o.o.o.o.o.o.o.o.o.o.o.o.o.o.o.",
"o.o.o.o.o.s o.o.o.o.o.o.o.o.o.o.o.o.o.o.o.o.o.o.o.o.o.o.o.o.o.o.o.o.o.o.o.0.o.o.o.o.o.o.o.o.o.o.o.o.o.o.o.o.o.o.o.o.o.o.o.o.",
"o.o.o.o.o.f o.o.o.o.o.o.o.o.o.o.o.o.o.o.o.o.o.o.o.o.o.o.o.o.o.o.o.o.o.o.o.i.o.o.o.o.o.o.o.o.o.o.o.o.o.o.o.o.o.o.o.o.o.o.o.o.",
"o.o.o.o.o.p o.o.o.o.o.o.o.o.o.o.o.o.o.o.o.o.o.o.o.o.o.o.o.o.o.o.o.o.o.o.o.i.o.o.o.o.o.o.o.o.o.o.o.o.o.o.o.o.o.o.o.o.o.o.o.o.",
"o.o.o.o.o.@.o.o.o.o.o.o.o.o.o.o.o.o.o.o.o.o.o.o.o.o.o.o.o.o.o.o.o.o.o.o.o.@.o.o.o.o.o.o.o.o.o.o.o.o.o.o.o.o.o.o.o.o.o.o.o.o.",
"o.o.o.o.o.9.o.o.o.o.o.o.o.o.o.o.o.o.o.o.o.o.o.o.o.o.o.o.o.o.o.o.o.o.o.o.o.9.o.o.o.o.o.o.o.o.o.o.o.o.o.o.o.o.o.o.o.o.o.o.o.o.",
"p.p.p.p.p.p.p.p.p.p.p.p.p.p.p.o.p.p.p.p.p.p.p.p.p.p.p.p.p.p.p.p.p.p.p.p.p.p.p.p.p.p.p.p.p.p.p.o.p.p.p.p.p.p.p.p.p.p.p.p.p.p.",
"a.a.a.a.a.a.a.a.a.a.a.a.a.a.a.s.a.a.a.a.a.a.a.a.a.a.a.a.a.a.a.a.a.a.a.a.a.a.a.a.a.a.a.a.a.a.a.s.a.a.a.a.a.a.a.a.a.a.a.a.a.a.",
"a.a.a.a.a.a.a.a.a.a.a.a.a.a.a.d.a.a.a.a.a.a.a.a.a.a.a.a.a.a.a.a.a.a.a.a.a.a.a.a.a.a.a.a.a.a.a.d.a.a.a.a.a.a.a.a.a.a.a.a.a.a.",
"a.a.a.a.a.a.a.a.a.a.a.a.a.a.a.d.a.a.a.a.a.a.a.a.a.a.a.a.a.a.a.a.a.a.a.a.a.a.a.a.a.a.a.a.a.a.a.d.a.a.a.a.a.a.a.a.a.a.a.a.a.a.",
"a.a.a.a.a.a.a.a.a.a.a.a.a.a.a.d.a.a.a.a.a.a.a.a.a.a.a.a.a.a.a.a.a.a.a.a.a.a.a.a.a.a.a.a.a.a.a.d.a.a.a.a.a.a.a.a.a.a.a.a.a.a.",
"f.f.f.f.f.f.f.f.f.f.f.f.f.f.f.d.f.f.f.f.f.f.f.f.f.f.f.f.f.f.f.f.f.f.f.f.f.f.f.f.f.f.f.f.f.f.f.d.f.f.f.f.f.f.f.f.f.f.f.f.f.f.",
"g.g.g.g.g.g.g.g.g.g.g.g.g.g.g.d.g.g.g.g.g.g.g.g.g.g.g.g.g.g.g.g.g.g.g.g.g.g.g.g.g.g.g.g.g.g.g.d.g.g.g.g.g.g.g.g.g.g.g.g.g.g.",
"g.g.g.g.g.g.g.g.g.g.g.g.g.g.g.d.g.g.g.g.g.g.g.g.g.g.g.g.g.g.g.g.g.g.g.g.g.g.g.g.g.g.g.g.g.g.g.d.g.g.g.g.g.g.g.g.g.g.g.g.g.g.",
"g.g.g.g.g.g.g.g.g.g.g.g.g.g.g.w g.g.g.g.g.g.g.g.g.g.g.g.g.g.g.g.g.g.g.g.g.g.g.g.g.g.g.g.g.g.g.w g.g.g.g.g.g.g.g.g.g.g.g.g.g.",
"w w w w w w w w w w w w w w w w w w w w w w w w w w w w w w w w w w w w w w w w w w w w w w w w w w w w w w w w w w w w w w "
};
