/* XPM */
static char *_2f5319251204e83d704233bfc0382e7WcCORqEADt3jGftM[] = {
/* columns rows colors chars-per-pixel */
"63 64 136 2 ",
"   c #4F2A14",
".  c #502C17",
"X  c #52321F",
"o  c #553724",
"O  c #553827",
"+  c #5B3C27",
"@  c #553B2B",
"#  c #5A3C29",
"$  c #533F30",
"%  c #583F30",
"&  c #5A402F",
"*  c #574233",
"=  c #594436",
"-  c #574639",
";  c #5A4639",
":  c #5D4A3C",
">  c #644A37",
",  c #614C3D",
"<  c #5D4E43",
"1  c #5C5247",
"2  c #5D5348",
"3  c #614E41",
"4  c #615145",
"5  c #6A5645",
"6  c #62564C",
"7  c #63584E",
"8  c #6A5C4D",
"9  c #615750",
"0  c #635A52",
"q  c #685E53",
"w  c #665F58",
"e  c #666057",
"r  c #6D6155",
"t  c #676159",
"y  c #6A6259",
"u  c #6B6259",
"i  c #68625A",
"p  c #68635A",
"a  c #68625B",
"s  c #68635B",
"d  c #69635B",
"f  c #6B635A",
"g  c #6A6158",
"h  c #68645B",
"j  c #69645B",
"k  c #6C645B",
"l  c #68635C",
"z  c #69645C",
"x  c #68645D",
"c  c #69645D",
"v  c #6A645C",
"b  c #6A655C",
"n  c #6A655D",
"m  c #6B655D",
"M  c #6A665C",
"N  c #6B665D",
"B  c #6B675D",
"V  c #6A655E",
"C  c #6B665E",
"Z  c #6B675E",
"A  c #6C645C",
"S  c #6C655C",
"D  c #6C655D",
"F  c #6C665E",
"G  c #6C675E",
"H  c #6B665E",
"J  c #6B685E",
"K  c #6C685E",
"L  c #6C685F",
"P  c #6D685F",
"I  c #6D695F",
"U  c #706153",
"Y  c #706659",
"T  c #716B5F",
"R  c #6C6760",
"E  c #6D6960",
"W  c #6D6861",
"Q  c #6D6962",
"!  c #6E6962",
"~  c #6E6963",
"^  c #6E6A63",
"/  c #6F6B65",
"(  c #6F6C65",
")  c #706B62",
"_  c #706A63",
"`  c #706B63",
"'  c #716B63",
"]  c #706C62",
"[  c #706C63",
"{  c #716C63",
"}  c #706D63",
"|  c #716D63",
" . c #706B64",
".. c #706C64",
"X. c #716D64",
"o. c #716C65",
"O. c #716D65",
"+. c #726C65",
"@. c #726E64",
"#. c #726E65",
"$. c #716C66",
"%. c #716D66",
"&. c #726D66",
"*. c #726D67",
"=. c #726E67",
"-. c #736D61",
";. c #7B7466",
":. c #7C7567",
">. c #767469",
",. c #7D7668",
"<. c #78766B",
"1. c #7E786B",
"2. c #7F796C",
"3. c #867F76",
"4. c #838077",
"5. c #868579",
"6. c #86857A",
"7. c #87857A",
"8. c #87867A",
"9. c #87867B",
"0. c #87877B",
"q. c #838178",
"w. c #8A8479",
"e. c #88877B",
"r. c #88877C",
"t. c #8F8D85",
"y. c #908E85",
"u. c #908E86",
"i. c #908E87",
"p. c #918F88",
"a. c #929088",
"s. c #939189",
"d. c #93928A",
"f. c #95938B",
"g. c #96948C",
"h. c #97958D",
/* pixels */
"5.5.5.5.5.5.5.5.5.5.5.5.5.e.5.5 ;.5.5.5.5.5.5.5.5.5.5.5.5.5.5.5.5.5.5.5.5.5.5.5.5.5.5.5.5.5.r.:.5 5.5.5.5.5.5.5.5.5.5.5.5.5.5.",
"5.5.5.5.5.5.5.5.5.5.5.5.5.5.5.5 :.5.5.5.5.5.5.5.5.5.5.5.5.5.5.5.5.5.5.5.5.5.5.5.5.5.5.5.5.5.5.,.5 5.5.5.5.5.5.5.5.5.5.5.5.5.5.",
"5.5.5.5.5.5.5.5.5.5.5.5.5.5.5.8 1.5.5.5.5.5.5.5.5.5.5.5.5.5.5.5.5.5.5.5.5.5.5.5.5.5.5.5.5.5.5.2.8 5.5.5.5.5.5.5.5.5.5.5.5.5.5.",
"t.t.t.t.t.t.t.t.t.t.y.p.f.g.g.U 3.g.g.g.a.p.a.a.a.a.a.a.a.a.a.y.t.t.t.t.t.t.t.t.t.t.t.y.a.g.g.e.r a.g.g.f.a.a.a.a.a.a.a.a.a.a.",
"[ [ [ [ [ [ [ [ [ [ [ [ #.#.#., r #.#.[ [ [ [ [ [ ` [ [ [ [ [ [ [ [ [ [ [ [ [ [ [ [ [ [ [ #.#.u , #.#.[ [ [ [ [ [ [ ` [ [ [ [ ",
"P P P P P P P P P P P P P P E : q E P P P P P P P G G G G G G P P P P P P P P P P P P P P P E q : E P P P P P P P P G G G G G ",
"P P P P P P P P P P P P P G P : q P P G G P P P G G G G G G G G P P P P P P P P P P P P P P P q : E P P G G P P P G G G G G G ",
"P P P P P P P P P P G G G G P : q P G G G N N G G G G G G G N G P P P P P P P P P P P G G G P q : P G G G G N N G G G G G G N ",
"G G G G G G G G G G N N N N J : q N N N N N N N N N N N N N N G G G G G G G G G G G G N N N J q : N N N N N N N N N N N N N N ",
"N N N N N N N N N N N N N N N : q N N N N N N N N N N N N N N N N N N N N N N N N N N N N N N q : N N N N N N N N N N N N N N ",
"N N N N N N N N N N N N N N N ; 0 N N N N N N N N N N N N N N N N N N N N N N N N N N N N N N 0 ; N N N N N N N N N N N N N N ",
"N N N N N N N N N N N N N N N # 6 N j j j j j j j j j j j j j N N N N N N N N N N N N N N N N 7 # N j j j j j j j j j j j j j ",
"j N j j j j j j j j j j j j N @ 6 N d d d d j j j j j j j j j j j N N j j j j j j j j j j j N 7 @ N d d d d d j j j j j j j j ",
"d d d d d d d d d d d d d d j @ 6 j d d d d d d d d d d d d d d d d d d d d d d d d d d d d j 6 @ j d d d d d d d d d d d d d ",
"t t t t t t d d d d d d d d d @ 6 d d d d d d d d d d d d d d d t t t t t t d d d d d d d d j 6 @ d d d d d d d d d d d d d d ",
"t t t t t t t t t t t t t t d @ 6 d t t t t t t t t t t t t t t t t t t t t t t t t t t t t d 6 @ d t t t t t t t t t t t t t ",
"d d d d d d d d d d d d d d l o 4 l d d d d d d t t d d d d d d d d d d d d d d d d d d d d l 6 o l d d t t t d d d d d d d d ",
"o o o o o o o o o o o o o o o = @ o o o o o o o o o o o o o o o o o o o o o o o o o o o o o o @ = o o o o o o o o o o o o o o ",
"= = = = = = = = = = = = = = = 1 ; = = = = - o @ - = = = = = - - = = = = = = = = = = = = = = = ; 1 = = = - - * X = = = = = = = ",
"2 2 2 2 2 2 2 2 2 2 2 2 2 2 2 1 2 2 2 2 2 2 @ - 2 2 2 2 2 2 2 2 2 2 2 2 2 2 2 2 2 2 2 2 2 2 2 2 1 2 2 2 2 2 < o 2 2 2 2 2 2 2 ",
"1 1 1 1 1 1 1 1 1 1 1 1 1 1 1 1 1 1 1 1 1 2 @ - 2 1 1 1 1 1 2 2 1 1 1 1 1 1 1 1 1 1 1 1 1 1 1 1 1 1 1 1 1 1 < O 1 1 1 1 1 1 1 ",
"1 1 1 1 1 1 1 1 1 1 1 1 1 1 1 1 1 1 1 1 1 2 $ - 2 1 1 1 1 1 2 2 1 1 1 1 1 1 1 1 1 1 1 1 1 1 1 1 1 1 1 1 1 1 < O 1 1 1 1 1 1 1 ",
"1 1 1 1 1 1 1 1 1 1 1 1 1 1 1 1 1 1 1 1 1 2 $ - 2 1 1 1 1 1 2 2 1 1 1 1 1 1 1 1 1 1 1 1 1 1 1 1 1 1 1 1 1 1 < O 1 1 1 1 1 1 1 ",
"1 1 1 1 1 1 1 1 1 1 1 1 1 1 1 1 1 1 1 1 1 2 @ - 1 1 1 1 1 1 1 1 1 1 1 1 1 1 1 1 1 1 1 1 1 1 1 1 1 1 1 1 1 1 < O 1 1 1 1 1 1 1 ",
"0 0 0 0 0 0 0 0 0 0 0 0 0 0 0 0 0 0 0 0 0 0 - < 0 0 0 0 0 0 0 0 0 0 0 0 0 0 0 0 0 0 0 0 0 0 0 0 0 0 0 0 0 0 7 * 0 0 0 0 0 0 0 ",
"d d d d d t t t d d d d d d d d d d d d d N - 4 N d d d d d d d d d d d d d d d t d d d d d d d d d d d d t q = d d d d d d d ",
"7 7 7 7 6 6 6 7 7 7 7 7 7 7 7 7 7 7 1 < : : @ % : 4 7 7 7 7 7 7 7 7 7 7 6 6 6 6 7 7 7 7 7 7 7 7 7 7 7 < < : - o ; < 7 7 7 7 7 ",
"q q q q q < : d G G G G G G G G G k q q 7 7 7 6 7 q d d d d d d d k k d d 7 4 q q q q q q q q q q q q 6 6 6 4 4 4 6 q q q q q ",
"N N N N N 1 q #.=.#.#.=.#.#.#.#.#.#.#.#.#.#.#.#.#.#. .#.#.#.#. .#.#.#.#.#.q 6 N N N N N N N N N N N N N N N N N N N N N N N N ",
"t t t t t 1 #.E E E E E E E E E E E E E W W E E E E E E E E E E E E E E E q 6 t t t t t t t t t t t t t t t t t t t t t t t t ",
"t t t t t 1 #.E E E E E E E E E E E E E E W W W E E E E E E E E E E E E E q 6 t t t t t t t t t t t t t t t t t t t t t t t t ",
"t t t t t 1 #.E W W E E E E E E W E E E W W W E E E E W E E E E E E E E E q 6 t t t t t t t t t t t t t t t t t t t t t t t t ",
"t t t t t 1 #.E E E E E E E E E E E E E E E E E E E E E E E E E E E E E E q 6 t t t t t t t t t t t t t t t t t t t t t t t t ",
"t t t t t :  .E E E E E E E E E E E E E E E E E E E E E E E E E E E E E E 7 : d t t t t t t t t t t t t t t t t t t t t t t t ",
"t t d d t = ` / E E E E E E E E E E E E E E E E E E E E E E E E / / E E ( 4 = N d d d d d d d d d d d d d d d d d d t t t t t ",
"6 6 4 < : o , 3 3 4 4 4 6 7 7 7 7 7 7 7 7 6 4 4 4 4 4 4 3 3 3 3 3 3 3 3 3 ; = : : : : : : : < < < 4 4 4 4 4 4 4 < 1 6 0 0 0 0 ",
"4 4 < : : = # # # = = = : : : : : : : : : ; @ @ @ @ @ @ @ @ @ @ @ @ O O o % = @ @ @ @ @ @ @ @ % = = = = = = = # < 3 6 0 0 0 0 ",
"l l l l N t q q q q 0 0 0 0 0 0 0 0 0 0 0 0 - - < 1 2 2 2 2 2 2 2 2 2 2 2 2 2 2 2 2 2 2 2 2 2 2 2 2 2 2 1 < : = N N N N N N N ",
"w w w w w w w w w w w w w w w w w w w w w t - ; 2 7 0 0 9 9 9 0 0 0 0 0 9 9 9 0 9 9 0 0 0 0 0 0 9 0 9 9 9 < : = q w w w w w w ",
"w w w w w w w w w w w w w w w w w w w w w w < 1 0 0 0 0 9 9 9 0 0 0 0 0 9 9 9 0 9 9 0 0 0 0 0 0 9 9 9 9 0 9 < - q w w w w w w ",
"w w w w w w w w w w w w w w w w w w w w w t 7 7 9 9 9 9 0 0 0 0 0 0 0 0 9 9 0 0 0 0 0 9 9 9 9 9 0 0 0 9 9 9 7 - q w w w w w w ",
"w w w w w w w w w w w w w w w w w w w w w t 7 7 0 9 9 9 0 0 0 0 0 0 0 0 9 0 0 0 0 0 0 0 9 9 9 9 0 0 0 9 9 9 7 - q w w w w w w ",
"w w w w w w w w w w w w w w w w w w w w w t < 2 0 0 9 9 0 0 0 0 0 0 9 9 9 9 0 0 0 0 0 0 0 0 9 0 0 0 0 0 9 9 2 = w w w w w w w ",
"w w w w w w w w w w w w w w w w w w w t t t = : 0 0 0 0 9 0 0 0 0 0 9 9 9 9 0 0 0 0 0 0 0 0 0 0 0 0 0 0 0 0 2 @ w t w w w q w ",
"0 0 7 0 7 0 0 0 0 0 0 0 0 0 0 0 0 0 0 6 4 4 @ = < < < < 1 2 2 2 2 2 2 2 7 0 9 0 7 < < < < < < < < < < < < < - X 4 4 0 0 0 0 0 ",
"7 7 4 4 4 : 4 6 6 6 6 6 6 6 6 6 6 6 6 ; = = & = = = ; ; : 4 4 4 4 1 1 1 4 2 7 2 < : : : : : : : : : = = = # # # = = 4 6 6 6 6 ",
"N N N N N < d N N N N N N N N N N N N N N N N N N N N N N N N N N N N N q < 1 : 4 W N N N N N N N R R R N N N N N N N N N N N ",
"w w w w q < q w w w w w w w w w w w w w w w w w w w w w w w w w w w w w t 4 @ < t w w w w w w w w w w w w w w w w w w w w w w ",
"w w w w q < q w w w w w w w w w w w w w w w w w w w w w w w w w w w w w t 4 : t w w w w w w w w w w w w w w w w w w w w w w w ",
"w w w w w 2 q w w w w w w w w w w w w w w w w w w w w w w w w w w w w w t 6 < t w w w w w w w w w w w w w w w w w w w w w w w ",
"w w w w w 1 q w w w w w w w w w w w w w w w w w w w w w w w w w w w w w t 6 < t w w w q w w w w w w w w w w w w w w w w w w w ",
"w w w w q = 0 w w w w w w w w w w w w w w w w w w w w w w w w w w w w w t 4 < t w w w w w w w w w w w w w w w w w w w w w w w ",
"w w w w q = 0 t w w w w w w w w w w w w w w w w w w w w w w w w w w w w t 4 : t w w w w w w w w w w w w w w w w w w w w w w w ",
"7 7 7 7 7 # 6 7 7 7 7 7 7 7 7 q 0 7 7 7 7 7 7 7 7 7 7 7 7 7 7 7 7 7 7 7 7 : = 7 7 7 7 7 7 7 7 0 q 7 7 7 7 7 7 7 7 7 7 7 7 7 7 ",
"+ + @ @ @ @ @ @ @ @ @ @ @ @ + 4 = + @ @ @ @ @ @ @ @ + + @ @ @ @ + + @ @ @ @ @ @ @ @ @ @ @ @ + = 4 + @ @ @ @ @ @ @ @ @ @ @ @ @ ",
">.>.>.>.>.>.>.>.>.>.>.>.>.>.>.> Y >.>.>.>.>.>.>.>.>.>.>.>.>.>.>.>.>.>.>.>.>.>.>.>.>.>.>.>.>.>.Y > >.>.>.>.>.>.>.>.>.>.>.>.>.>.",
">.>.>.>.>.>.>.>.>.>.>.>.>.>.>.8 T >.>.>.>.>.>.>.>.>.>.>.>.>.>.>.>.>.>.>.>.>.>.>.>.>.>.>.>.>.>.[ 8 >.>.>.>.>.>.>.>.>.>.>.>.>.>.",
">.>.>.>.>.>.>.>.>.>.>.>.>.>.>.8 T >.>.>.>.>.>.>.>.>.>.>.>.>.>.>.>.>.>.>.>.>.>.>.>.>.>.>.>.>.>.[ 8 >.>.>.>.>.>.>.>.>.>.>.>.>.>.",
"<.<.<.<.<.<.<.<.<.<.<.<.<.<.<.8 [ <.<.<.<.<.<.<.<.<.<.<.<.<.<.<.<.<.<.<.<.<.<.<.<.<.<.<.<.<.<.[ 8 <.<.<.<.<.<.<.<.<.<.<.<.<.<.",
"4.4.4.4.4.4.4.4.4.4.4.4.4.4.q.8 <.q.4.4.4.4.4.4.4.4.4.4.4.4.4.4.4.4.4.4.4.4.4.4.4.4.4.4.4.4.q.<.8 q.4.4.4.4.4.4.4.4.4.4.4.4.4.",
"t t t t t t t t t t t t t t t 6 q t t t t t t t t t t t t t t t t t t t t t t t t t t t t t t q 6 t t t t t t t t t t t t t t ",
"e e e e e e e e e e e e e e e 4 q e e e e e e e e e e e e e e e e e e e e e e e e e e e e e e q 4 e e e e e e e e e e e e e e ",
"q q q q 0 0 q q q q q q 0 0 q o < q q q q 0 q q q q q q 0 0 q q q q q q 0 0 q q q q q q 0 0 q 1 o q q q q 0 q q q q q q 0 0 q ",
". . . . .   . . . . . . .   .   . . . . . . . . . . . . .   . . . . . . .   . . . . . . .   . .   . . . . . . . . . . . .   . "
};
